<svg xmlns="http://www.w3.org/2000/svg" version="1.1" xmlns:xlink="http://www.w3.org/1999/xlink" xmlns:svgjs="http://svgjs.dev/svgjs" width="1440" height="560" preserveAspectRatio="none" viewBox="0 0 1440 560"><g mask="url(&quot;#SvgjsMask1302&quot;)" fill="none"><rect width="1440" height="560" x="0" y="0" fill="url(&quot;#SvgjsLinearGradient1303&quot;)"></rect><g mask="url(&quot;#SvgjsMask1304&quot;)"><path d="M195.5 297.5L212.5 280.5M127.5 280.5L144.5 263.5L161.5 263.5L178.5 246.5M161.5 297.5L178.5 280.5M-8.5 280.5L8.5 280.5L25.5 280.5L42.5 280.5L59.5 280.5L76.5 280.5L93.5 280.5L110.5 280.5L127.5 280.5L144.5 280.5L161.5 297.5L178.5 297.5L195.5 297.5L212.5 297.5L229.5 297.5" stroke="#3a7cc3" stroke-width="2.83"></path><path d="M225.25 297.5 a4.25 4.25 0 1 0 8.5 0 a4.25 4.25 0 1 0 -8.5 0zM208.25 280.5 a4.25 4.25 0 1 0 8.5 0 a4.25 4.25 0 1 0 -8.5 0zM174.25 246.5 a4.25 4.25 0 1 0 8.5 0 a4.25 4.25 0 1 0 -8.5 0zM174.25 280.5 a4.25 4.25 0 1 0 8.5 0 a4.25 4.25 0 1 0 -8.5 0z" fill="#3a7cc3"></path><path d="M110.5 263.5L127.5 263.5M-8.5 263.5L8.5 263.5L25.5 263.5L42.5 263.5L59.5 263.5L76.5 263.5L93.5 263.5L110.5 263.5L127.5 246.5L144.5 246.5L161.5 246.5" stroke="#3a7cc3" stroke-width="2.83"></path><path d="M157.25 246.5 a4.25 4.25 0 1 0 8.5 0 a4.25 4.25 0 1 0 -8.5 0zM123.25 263.5 a4.25 4.25 0 1 0 8.5 0 a4.25 4.25 0 1 0 -8.5 0z" fill="#3a7cc3"></path><path d="M1028.5 348.5L1045.5 331.5L1062.5 331.5L1079.5 331.5L1096.5 331.5L1113.5 331.5L1130.5 331.5L1147.5 331.5L1164.5 314.5L1181.5 314.5L1198.5 314.5L1215.5 314.5L1232.5 314.5L1249.5 297.5L1266.5 297.5M586.5 314.5L603.5 297.5L620.5 297.5L637.5 297.5L654.5 297.5L671.5 297.5L688.5 280.5L705.5 280.5L722.5 280.5L739.5 280.5M314.5 314.5L331.5 331.5L348.5 331.5L365.5 331.5L382.5 331.5L399.5 331.5L416.5 331.5L433.5 331.5L450.5 331.5L467.5 331.5L484.5 348.5L501.5 348.5L518.5 348.5M705.5 314.5L722.5 314.5M1164.5 331.5L1181.5 348.5L1198.5 348.5L1215.5 348.5L1232.5 348.5L1249.5 348.5L1266.5 331.5M739.5 331.5L756.5 314.5L773.5 297.5L790.5 297.5L807.5 297.5L824.5 297.5M1096.5 348.5L1113.5 365.5L1130.5 365.5L1147.5 365.5L1164.5 365.5L1181.5 365.5L1198.5 365.5L1215.5 365.5L1232.5 365.5L1249.5 365.5L1266.5 365.5M501.5 314.5L518.5 331.5L535.5 348.5L552.5 348.5L569.5 331.5M433.5 314.5L450.5 297.5L467.5 297.5L484.5 297.5L501.5 297.5L518.5 297.5L535.5 297.5L552.5 297.5L569.5 297.5L586.5 297.5L603.5 280.5L620.5 280.5L637.5 280.5L654.5 280.5L671.5 280.5M1147.5 348.5L1164.5 348.5M246.5 314.5L263.5 331.5L280.5 331.5L297.5 331.5L314.5 331.5L331.5 348.5L348.5 348.5L365.5 348.5M688.5 314.5L705.5 297.5L722.5 297.5L739.5 297.5L756.5 297.5M790.5 331.5L807.5 314.5L824.5 314.5L841.5 314.5L858.5 297.5L875.5 297.5M807.5 331.5L824.5 348.5L841.5 365.5L858.5 365.5L875.5 365.5L892.5 365.5L909.5 365.5L926.5 365.5L943.5 365.5L960.5 365.5L977.5 382.5L994.5 382.5L1011.5 382.5L1028.5 382.5L1045.5 382.5L1062.5 382.5L1079.5 382.5L1096.5 382.5L1113.5 382.5L1130.5 382.5L1147.5 382.5L1164.5 382.5L1181.5 382.5L1198.5 382.5L1215.5 382.5M926.5 348.5L943.5 331.5L960.5 331.5L977.5 314.5M331.5 314.5L348.5 297.5L365.5 297.5L382.5 297.5L399.5 297.5L416.5 297.5L433.5 297.5L450.5 280.5L467.5 280.5L484.5 280.5L501.5 280.5L518.5 280.5L535.5 280.5M229.5 314.5L246.5 331.5M773.5 331.5L790.5 314.5M-8.5 297.5L8.5 297.5L25.5 297.5L42.5 297.5L59.5 297.5L76.5 297.5L93.5 297.5L110.5 297.5L127.5 297.5L144.5 297.5L161.5 314.5L178.5 314.5L195.5 314.5L212.5 314.5L229.5 314.5L246.5 314.5L263.5 314.5L280.5 314.5L297.5 314.5L314.5 314.5L331.5 314.5L348.5 314.5L365.5 314.5L382.5 314.5L399.5 314.5L416.5 314.5L433.5 314.5L450.5 314.5L467.5 314.5L484.5 314.5L501.5 314.5L518.5 314.5L535.5 314.5L552.5 314.5L569.5 314.5L586.5 314.5L603.5 314.5L620.5 314.5L637.5 314.5L654.5 314.5L671.5 314.5L688.5 314.5L705.5 314.5L722.5 331.5L739.5 331.5L756.5 331.5L773.5 331.5L790.5 331.5L807.5 331.5L824.5 331.5L841.5 331.5L858.5 331.5L875.5 331.5L892.5 331.5L909.5 348.5L926.5 348.5L943.5 348.5L960.5 348.5L977.5 348.5L994.5 348.5L1011.5 348.5L1028.5 348.5L1045.5 348.5L1062.5 348.5L1079.5 348.5L1096.5 348.5L1113.5 348.5L1130.5 348.5L1147.5 348.5L1164.5 331.5L1181.5 331.5L1198.5 331.5" stroke="rgba(82, 255, 4, 1)" stroke-width="2.83"></path><path d="M1194.25 331.5 a4.25 4.25 0 1 0 8.5 0 a4.25 4.25 0 1 0 -8.5 0zM1262.25 297.5 a4.25 4.25 0 1 0 8.5 0 a4.25 4.25 0 1 0 -8.5 0zM735.25 280.5 a4.25 4.25 0 1 0 8.5 0 a4.25 4.25 0 1 0 -8.5 0zM514.25 348.5 a4.25 4.25 0 1 0 8.5 0 a4.25 4.25 0 1 0 -8.5 0zM718.25 314.5 a4.25 4.25 0 1 0 8.5 0 a4.25 4.25 0 1 0 -8.5 0zM1262.25 331.5 a4.25 4.25 0 1 0 8.5 0 a4.25 4.25 0 1 0 -8.5 0zM820.25 297.5 a4.25 4.25 0 1 0 8.5 0 a4.25 4.25 0 1 0 -8.5 0zM1262.25 365.5 a4.25 4.25 0 1 0 8.5 0 a4.25 4.25 0 1 0 -8.5 0zM565.25 331.5 a4.25 4.25 0 1 0 8.5 0 a4.25 4.25 0 1 0 -8.5 0zM667.25 280.5 a4.25 4.25 0 1 0 8.5 0 a4.25 4.25 0 1 0 -8.5 0zM1160.25 348.5 a4.25 4.25 0 1 0 8.5 0 a4.25 4.25 0 1 0 -8.5 0zM361.25 348.5 a4.25 4.25 0 1 0 8.5 0 a4.25 4.25 0 1 0 -8.5 0zM752.25 297.5 a4.25 4.25 0 1 0 8.5 0 a4.25 4.25 0 1 0 -8.5 0zM871.25 297.5 a4.25 4.25 0 1 0 8.5 0 a4.25 4.25 0 1 0 -8.5 0zM1211.25 382.5 a4.25 4.25 0 1 0 8.5 0 a4.25 4.25 0 1 0 -8.5 0zM973.25 314.5 a4.25 4.25 0 1 0 8.5 0 a4.25 4.25 0 1 0 -8.5 0zM531.25 280.5 a4.25 4.25 0 1 0 8.5 0 a4.25 4.25 0 1 0 -8.5 0zM242.25 331.5 a4.25 4.25 0 1 0 8.5 0 a4.25 4.25 0 1 0 -8.5 0zM786.25 314.5 a4.25 4.25 0 1 0 8.5 0 a4.25 4.25 0 1 0 -8.5 0z" fill="rgba(82, 255, 4, 1)"></path><path d="M688.5 229.5L705.5 246.5L722.5 246.5M263.5 229.5L280.5 212.5L297.5 212.5M467.5 229.5L484.5 246.5L501.5 263.5L518.5 263.5L535.5 263.5L552.5 263.5M314.5 229.5L331.5 246.5L348.5 246.5L365.5 246.5M637.5 229.5L654.5 246.5M144.5 229.5L161.5 212.5L178.5 212.5L195.5 212.5M807.5 229.5L824.5 212.5L841.5 212.5L858.5 212.5L875.5 212.5L892.5 212.5L909.5 212.5L926.5 212.5L943.5 212.5L960.5 212.5L977.5 212.5L994.5 212.5L1011.5 212.5L1028.5 212.5L1045.5 212.5M994.5 229.5L1011.5 246.5L1028.5 246.5L1045.5 246.5L1062.5 246.5M722.5 229.5L739.5 212.5L756.5 212.5L773.5 212.5L790.5 212.5L807.5 212.5M382.5 229.5L399.5 246.5L416.5 263.5M841.5 229.5L858.5 246.5L875.5 246.5L892.5 246.5L909.5 246.5L926.5 246.5L943.5 246.5L960.5 246.5L977.5 246.5L994.5 246.5L1011.5 263.5L1028.5 263.5L1045.5 263.5M229.5 229.5L246.5 246.5L263.5 246.5L280.5 246.5M586.5 229.5L603.5 246.5L620.5 246.5L637.5 263.5M297.5 229.5L314.5 246.5L331.5 263.5L348.5 263.5L365.5 263.5L382.5 263.5M331.5 229.5L348.5 212.5L365.5 212.5M246.5 229.5L263.5 212.5M-8.5 246.5L8.5 246.5L25.5 246.5L42.5 246.5L59.5 246.5L76.5 246.5L93.5 246.5L110.5 246.5L127.5 229.5L144.5 229.5L161.5 229.5L178.5 229.5L195.5 229.5L212.5 229.5L229.5 229.5L246.5 229.5L263.5 229.5L280.5 229.5L297.5 229.5L314.5 229.5L331.5 229.5L348.5 229.5L365.5 229.5L382.5 229.5L399.5 229.5L416.5 229.5L433.5 229.5L450.5 229.5L467.5 229.5L484.5 229.5L501.5 229.5L518.5 229.5L535.5 229.5L552.5 229.5L569.5 229.5L586.5 229.5L603.5 229.5L620.5 229.5L637.5 229.5L654.5 229.5L671.5 229.5L688.5 229.5L705.5 229.5L722.5 229.5L739.5 229.5L756.5 229.5L773.5 229.5L790.5 229.5L807.5 229.5L824.5 229.5L841.5 229.5L858.5 229.5L875.5 229.5L892.5 229.5L909.5 229.5L926.5 229.5L943.5 229.5L960.5 229.5L977.5 229.5L994.5 229.5L1011.5 229.5L1028.5 229.5L1045.5 229.5L1062.5 229.5" stroke="#dd1133" stroke-width="2.83"></path><path d="M1058.25 229.5 a4.25 4.25 0 1 0 8.5 0 a4.25 4.25 0 1 0 -8.5 0zM718.25 246.5 a4.25 4.25 0 1 0 8.5 0 a4.25 4.25 0 1 0 -8.5 0zM293.25 212.5 a4.25 4.25 0 1 0 8.5 0 a4.25 4.25 0 1 0 -8.5 0zM548.25 263.5 a4.25 4.25 0 1 0 8.5 0 a4.25 4.25 0 1 0 -8.5 0zM361.25 246.5 a4.25 4.25 0 1 0 8.5 0 a4.25 4.25 0 1 0 -8.5 0zM650.25 246.5 a4.25 4.25 0 1 0 8.5 0 a4.25 4.25 0 1 0 -8.5 0zM191.25 212.5 a4.25 4.25 0 1 0 8.5 0 a4.25 4.25 0 1 0 -8.5 0zM1041.25 212.5 a4.25 4.25 0 1 0 8.5 0 a4.25 4.25 0 1 0 -8.5 0zM1058.25 246.5 a4.25 4.25 0 1 0 8.5 0 a4.25 4.25 0 1 0 -8.5 0zM803.25 212.5 a4.25 4.25 0 1 0 8.5 0 a4.25 4.25 0 1 0 -8.5 0zM412.25 263.5 a4.25 4.25 0 1 0 8.5 0 a4.25 4.25 0 1 0 -8.5 0zM1041.25 263.5 a4.25 4.25 0 1 0 8.5 0 a4.25 4.25 0 1 0 -8.5 0zM276.25 246.5 a4.25 4.25 0 1 0 8.5 0 a4.25 4.25 0 1 0 -8.5 0zM633.25 263.5 a4.25 4.25 0 1 0 8.5 0 a4.25 4.25 0 1 0 -8.5 0zM378.25 263.5 a4.25 4.25 0 1 0 8.5 0 a4.25 4.25 0 1 0 -8.5 0zM361.25 212.5 a4.25 4.25 0 1 0 8.5 0 a4.25 4.25 0 1 0 -8.5 0zM259.25 212.5 a4.25 4.25 0 1 0 8.5 0 a4.25 4.25 0 1 0 -8.5 0z" fill="#dd1133"></path><path d="M-8.5 314.5L8.5 314.5L25.5 314.5L42.5 314.5L59.5 314.5L76.5 314.5L93.5 314.5L110.5 314.5L127.5 314.5L144.5 314.5L161.5 331.5L178.5 331.5L195.5 331.5L212.5 331.5L229.5 348.5L246.5 348.5L263.5 348.5L280.5 348.5" stroke="#dd1133" stroke-width="2.83"></path><path d="M276.25 348.5 a4.25 4.25 0 1 0 8.5 0 a4.25 4.25 0 1 0 -8.5 0z" fill="#dd1133"></path><path d="M229.5 195.5L246.5 178.5L263.5 178.5M212.5 195.5L229.5 178.5L246.5 161.5M59.5 229.5L76.5 212.5L93.5 212.5L110.5 212.5M42.5 229.5L59.5 212.5M280.5 195.5L297.5 178.5M-8.5 229.5L8.5 229.5L25.5 229.5L42.5 229.5L59.5 229.5L76.5 229.5L93.5 229.5L110.5 229.5L127.5 212.5L144.5 195.5L161.5 195.5L178.5 195.5L195.5 195.5L212.5 195.5L229.5 195.5L246.5 195.5L263.5 195.5L280.5 195.5L297.5 195.5L314.5 195.5L331.5 195.5" stroke="rgba(82, 255, 4, 1)" stroke-width="2.83"></path><path d="M327.25 195.5 a4.25 4.25 0 1 0 8.5 0 a4.25 4.25 0 1 0 -8.5 0zM259.25 178.5 a4.25 4.25 0 1 0 8.5 0 a4.25 4.25 0 1 0 -8.5 0zM242.25 161.5 a4.25 4.25 0 1 0 8.5 0 a4.25 4.25 0 1 0 -8.5 0zM106.25 212.5 a4.25 4.25 0 1 0 8.5 0 a4.25 4.25 0 1 0 -8.5 0zM55.25 212.5 a4.25 4.25 0 1 0 8.5 0 a4.25 4.25 0 1 0 -8.5 0zM293.25 178.5 a4.25 4.25 0 1 0 8.5 0 a4.25 4.25 0 1 0 -8.5 0z" fill="rgba(82, 255, 4, 1)"></path><path d="M790.5 348.5L807.5 348.5M569.5 348.5L586.5 348.5M756.5 348.5L773.5 365.5L790.5 365.5L807.5 382.5M637.5 331.5L654.5 348.5L671.5 365.5L688.5 365.5L705.5 365.5L722.5 365.5M76.5 331.5L93.5 348.5L110.5 348.5L127.5 348.5M382.5 365.5L399.5 348.5L416.5 348.5M552.5 365.5L569.5 365.5L586.5 365.5L603.5 365.5L620.5 365.5L637.5 365.5L654.5 365.5M178.5 348.5L195.5 365.5L212.5 365.5M671.5 331.5L688.5 348.5M603.5 331.5L620.5 348.5L637.5 348.5M297.5 365.5L314.5 348.5M59.5 331.5L76.5 348.5M-8.5 331.5L8.5 331.5L25.5 331.5L42.5 331.5L59.5 331.5L76.5 331.5L93.5 331.5L110.5 331.5L127.5 331.5L144.5 348.5L161.5 348.5L178.5 348.5L195.5 348.5L212.5 348.5L229.5 365.5L246.5 365.5L263.5 365.5L280.5 365.5L297.5 365.5L314.5 365.5L331.5 365.5L348.5 365.5L365.5 365.5L382.5 365.5L399.5 365.5L416.5 365.5L433.5 365.5L450.5 365.5L467.5 365.5L484.5 365.5L501.5 365.5L518.5 365.5L535.5 365.5L552.5 365.5L569.5 348.5L586.5 331.5L603.5 331.5L620.5 331.5L637.5 331.5L654.5 331.5L671.5 331.5L688.5 331.5L705.5 331.5L722.5 348.5L739.5 348.5L756.5 348.5L773.5 348.5L790.5 348.5L807.5 365.5" stroke="rgba(82, 255, 4, 1)" stroke-width="2.83"></path><path d="M803.25 365.5 a4.25 4.25 0 1 0 8.5 0 a4.25 4.25 0 1 0 -8.5 0zM803.25 348.5 a4.25 4.25 0 1 0 8.5 0 a4.25 4.25 0 1 0 -8.5 0zM582.25 348.5 a4.25 4.25 0 1 0 8.5 0 a4.25 4.25 0 1 0 -8.5 0zM803.25 382.5 a4.25 4.25 0 1 0 8.5 0 a4.25 4.25 0 1 0 -8.5 0zM718.25 365.5 a4.25 4.25 0 1 0 8.5 0 a4.25 4.25 0 1 0 -8.5 0zM123.25 348.5 a4.25 4.25 0 1 0 8.5 0 a4.25 4.25 0 1 0 -8.5 0zM412.25 348.5 a4.25 4.25 0 1 0 8.5 0 a4.25 4.25 0 1 0 -8.5 0zM650.25 365.5 a4.25 4.25 0 1 0 8.5 0 a4.25 4.25 0 1 0 -8.5 0zM208.25 365.5 a4.25 4.25 0 1 0 8.5 0 a4.25 4.25 0 1 0 -8.5 0zM684.25 348.5 a4.25 4.25 0 1 0 8.5 0 a4.25 4.25 0 1 0 -8.5 0zM633.25 348.5 a4.25 4.25 0 1 0 8.5 0 a4.25 4.25 0 1 0 -8.5 0zM310.25 348.5 a4.25 4.25 0 1 0 8.5 0 a4.25 4.25 0 1 0 -8.5 0zM72.25 348.5 a4.25 4.25 0 1 0 8.5 0 a4.25 4.25 0 1 0 -8.5 0z" fill="rgba(82, 255, 4, 1)"></path><path d="M1079.5 212.5L1096.5 195.5L1113.5 195.5M1181.5 212.5L1198.5 195.5M1215.5 212.5L1232.5 195.5M858.5 195.5L875.5 178.5L892.5 161.5L909.5 161.5L926.5 161.5L943.5 161.5L960.5 161.5L977.5 161.5L994.5 161.5L1011.5 161.5L1028.5 161.5L1045.5 161.5L1062.5 161.5L1079.5 161.5L1096.5 178.5L1113.5 178.5L1130.5 178.5L1147.5 178.5L1164.5 178.5L1181.5 161.5L1198.5 161.5M586.5 212.5L603.5 195.5L620.5 195.5L637.5 178.5L654.5 161.5L671.5 144.5L688.5 144.5L705.5 144.5L722.5 144.5L739.5 161.5L756.5 161.5L773.5 161.5L790.5 161.5L807.5 161.5L824.5 161.5L841.5 161.5L858.5 178.5M246.5 144.5L263.5 144.5L280.5 144.5L297.5 144.5L314.5 144.5L331.5 144.5L348.5 161.5L365.5 161.5L382.5 161.5L399.5 161.5L416.5 161.5L433.5 161.5L450.5 161.5L467.5 161.5L484.5 161.5L501.5 161.5L518.5 144.5M790.5 178.5L807.5 178.5L824.5 178.5L841.5 178.5M433.5 178.5L450.5 195.5L467.5 212.5M450.5 178.5L467.5 178.5L484.5 178.5L501.5 178.5L518.5 178.5L535.5 178.5L552.5 178.5M1130.5 212.5L1147.5 229.5L1164.5 229.5L1181.5 229.5L1198.5 229.5L1215.5 229.5L1232.5 229.5L1249.5 229.5L1266.5 229.5M756.5 178.5L773.5 195.5L790.5 195.5M994.5 195.5L1011.5 178.5L1028.5 178.5L1045.5 178.5L1062.5 178.5L1079.5 178.5M722.5 178.5L739.5 195.5L756.5 195.5M1164.5 212.5L1181.5 195.5L1198.5 178.5L1215.5 178.5L1232.5 178.5M501.5 212.5L518.5 195.5L535.5 195.5L552.5 195.5L569.5 195.5L586.5 195.5L603.5 178.5L620.5 178.5L637.5 161.5L654.5 144.5M960.5 195.5L977.5 178.5L994.5 178.5M637.5 195.5L654.5 212.5L671.5 212.5L688.5 212.5L705.5 212.5L722.5 212.5M382.5 178.5L399.5 195.5L416.5 195.5L433.5 195.5M-8.5 212.5L8.5 212.5L25.5 195.5L42.5 195.5L59.5 195.5L76.5 195.5L93.5 195.5L110.5 195.5L127.5 195.5L144.5 178.5L161.5 178.5L178.5 178.5L195.5 178.5L212.5 161.5L229.5 144.5L246.5 144.5L263.5 161.5L280.5 161.5L297.5 161.5L314.5 178.5L331.5 178.5L348.5 178.5L365.5 178.5L382.5 178.5L399.5 178.5L416.5 178.5L433.5 178.5L450.5 178.5L467.5 195.5L484.5 212.5L501.5 212.5L518.5 212.5L535.5 212.5L552.5 212.5L569.5 212.5L586.5 212.5L603.5 212.5L620.5 212.5L637.5 195.5L654.5 178.5L671.5 178.5L688.5 178.5L705.5 178.5L722.5 178.5L739.5 178.5L756.5 178.5L773.5 178.5L790.5 178.5L807.5 195.5L824.5 195.5L841.5 195.5L858.5 195.5L875.5 195.5L892.5 195.5L909.5 195.5L926.5 195.5L943.5 195.5L960.5 195.5L977.5 195.5L994.5 195.5L1011.5 195.5L1028.5 195.5L1045.5 195.5L1062.5 195.5L1079.5 212.5L1096.5 212.5L1113.5 212.5L1130.5 212.5L1147.5 212.5L1164.5 212.5L1181.5 212.5L1198.5 212.5L1215.5 212.5L1232.5 212.5" stroke="rgba(82, 255, 4, 1)" stroke-width="2.83"></path><path d="M1228.25 212.5 a4.25 4.25 0 1 0 8.5 0 a4.25 4.25 0 1 0 -8.5 0zM1109.25 195.5 a4.25 4.25 0 1 0 8.5 0 a4.25 4.25 0 1 0 -8.5 0zM1194.25 195.5 a4.25 4.25 0 1 0 8.5 0 a4.25 4.25 0 1 0 -8.5 0zM1228.25 195.5 a4.25 4.25 0 1 0 8.5 0 a4.25 4.25 0 1 0 -8.5 0zM1194.25 161.5 a4.25 4.25 0 1 0 8.5 0 a4.25 4.25 0 1 0 -8.5 0zM854.25 178.5 a4.25 4.25 0 1 0 8.5 0 a4.25 4.25 0 1 0 -8.5 0zM514.25 144.5 a4.25 4.25 0 1 0 8.5 0 a4.25 4.25 0 1 0 -8.5 0zM837.25 178.5 a4.25 4.25 0 1 0 8.5 0 a4.25 4.25 0 1 0 -8.5 0zM463.25 212.5 a4.25 4.25 0 1 0 8.5 0 a4.25 4.25 0 1 0 -8.5 0zM548.25 178.5 a4.25 4.25 0 1 0 8.5 0 a4.25 4.25 0 1 0 -8.5 0zM1262.25 229.5 a4.25 4.25 0 1 0 8.5 0 a4.25 4.25 0 1 0 -8.5 0zM786.25 195.5 a4.25 4.25 0 1 0 8.5 0 a4.25 4.25 0 1 0 -8.5 0zM1075.25 178.5 a4.25 4.25 0 1 0 8.5 0 a4.25 4.25 0 1 0 -8.5 0zM752.25 195.5 a4.25 4.25 0 1 0 8.5 0 a4.25 4.25 0 1 0 -8.5 0zM1228.25 178.5 a4.25 4.25 0 1 0 8.5 0 a4.25 4.25 0 1 0 -8.5 0zM650.25 144.5 a4.25 4.25 0 1 0 8.5 0 a4.25 4.25 0 1 0 -8.5 0zM990.25 178.5 a4.25 4.25 0 1 0 8.5 0 a4.25 4.25 0 1 0 -8.5 0zM718.25 212.5 a4.25 4.25 0 1 0 8.5 0 a4.25 4.25 0 1 0 -8.5 0zM429.25 195.5 a4.25 4.25 0 1 0 8.5 0 a4.25 4.25 0 1 0 -8.5 0z" fill="rgba(82, 255, 4, 1)"></path><path d="M1062.5 433.5L1079.5 416.5L1096.5 416.5L1113.5 416.5L1130.5 416.5L1147.5 433.5L1164.5 433.5L1181.5 433.5L1198.5 433.5L1215.5 433.5L1232.5 433.5L1249.5 433.5L1266.5 433.5M365.5 382.5L382.5 399.5M773.5 416.5L790.5 399.5L807.5 399.5L824.5 399.5L841.5 399.5L858.5 399.5L875.5 399.5L892.5 399.5L909.5 399.5L926.5 399.5M892.5 433.5L909.5 416.5L926.5 416.5L943.5 416.5L960.5 416.5L977.5 416.5L994.5 416.5L1011.5 416.5L1028.5 416.5L1045.5 399.5L1062.5 399.5L1079.5 399.5L1096.5 399.5L1113.5 399.5L1130.5 399.5L1147.5 399.5L1164.5 399.5L1181.5 399.5L1198.5 399.5L1215.5 399.5M1113.5 433.5L1130.5 450.5L1147.5 450.5L1164.5 450.5L1181.5 450.5L1198.5 450.5L1215.5 450.5L1232.5 450.5L1249.5 450.5L1266.5 450.5M739.5 416.5L756.5 399.5L773.5 399.5L790.5 382.5M654.5 416.5L671.5 399.5L688.5 399.5L705.5 399.5L722.5 399.5L739.5 399.5L756.5 382.5L773.5 382.5M637.5 399.5L654.5 399.5L671.5 382.5L688.5 382.5L705.5 382.5L722.5 382.5L739.5 382.5L756.5 365.5M824.5 416.5L841.5 433.5M161.5 382.5L178.5 365.5M1045.5 433.5L1062.5 416.5M875.5 433.5L892.5 416.5M1079.5 433.5L1096.5 450.5L1113.5 450.5L1130.5 467.5M569.5 399.5L586.5 382.5L603.5 382.5L620.5 382.5L637.5 382.5L654.5 382.5M518.5 399.5L535.5 382.5L552.5 382.5L569.5 382.5M42.5 348.5L59.5 348.5M144.5 382.5L161.5 365.5M-8.5 348.5L8.5 348.5L25.5 348.5L42.5 348.5L59.5 365.5L76.5 365.5L93.5 365.5L110.5 365.5L127.5 365.5L144.5 382.5L161.5 382.5L178.5 382.5L195.5 382.5L212.5 382.5L229.5 382.5L246.5 382.5L263.5 382.5L280.5 382.5L297.5 382.5L314.5 382.5L331.5 382.5L348.5 382.5L365.5 382.5L382.5 382.5L399.5 382.5L416.5 382.5L433.5 382.5L450.5 382.5L467.5 382.5L484.5 382.5L501.5 382.5L518.5 399.5L535.5 399.5L552.5 399.5L569.5 399.5L586.5 399.5L603.5 399.5L620.5 399.5L637.5 399.5L654.5 416.5L671.5 416.5L688.5 416.5L705.5 416.5L722.5 416.5L739.5 416.5L756.5 416.5L773.5 416.5L790.5 416.5L807.5 416.5L824.5 416.5L841.5 416.5L858.5 433.5L875.5 433.5L892.5 433.5L909.5 433.5L926.5 433.5L943.5 433.5L960.5 433.5L977.5 433.5L994.5 433.5L1011.5 433.5L1028.5 433.5L1045.5 433.5L1062.5 433.5L1079.5 433.5L1096.5 433.5L1113.5 433.5L1130.5 433.5" stroke="#dd1133" stroke-width="2.83"></path><path d="M1126.25 433.5 a4.25 4.25 0 1 0 8.5 0 a4.25 4.25 0 1 0 -8.5 0zM1262.25 433.5 a4.25 4.25 0 1 0 8.5 0 a4.25 4.25 0 1 0 -8.5 0zM378.25 399.5 a4.25 4.25 0 1 0 8.5 0 a4.25 4.25 0 1 0 -8.5 0zM922.25 399.5 a4.25 4.25 0 1 0 8.5 0 a4.25 4.25 0 1 0 -8.5 0zM1211.25 399.5 a4.25 4.25 0 1 0 8.5 0 a4.25 4.25 0 1 0 -8.5 0zM1262.25 450.5 a4.25 4.25 0 1 0 8.5 0 a4.25 4.25 0 1 0 -8.5 0zM786.25 382.5 a4.25 4.25 0 1 0 8.5 0 a4.25 4.25 0 1 0 -8.5 0zM769.25 382.5 a4.25 4.25 0 1 0 8.5 0 a4.25 4.25 0 1 0 -8.5 0zM752.25 365.5 a4.25 4.25 0 1 0 8.5 0 a4.25 4.25 0 1 0 -8.5 0zM837.25 433.5 a4.25 4.25 0 1 0 8.5 0 a4.25 4.25 0 1 0 -8.5 0zM174.25 365.5 a4.25 4.25 0 1 0 8.5 0 a4.25 4.25 0 1 0 -8.5 0zM1058.25 416.5 a4.25 4.25 0 1 0 8.5 0 a4.25 4.25 0 1 0 -8.5 0zM888.25 416.5 a4.25 4.25 0 1 0 8.5 0 a4.25 4.25 0 1 0 -8.5 0zM1126.25 467.5 a4.25 4.25 0 1 0 8.5 0 a4.25 4.25 0 1 0 -8.5 0zM650.25 382.5 a4.25 4.25 0 1 0 8.5 0 a4.25 4.25 0 1 0 -8.5 0zM565.25 382.5 a4.25 4.25 0 1 0 8.5 0 a4.25 4.25 0 1 0 -8.5 0zM55.25 348.5 a4.25 4.25 0 1 0 8.5 0 a4.25 4.25 0 1 0 -8.5 0zM157.25 365.5 a4.25 4.25 0 1 0 8.5 0 a4.25 4.25 0 1 0 -8.5 0z" fill="#dd1133"></path><path d="M365.5 127.5L382.5 144.5L399.5 144.5L416.5 144.5M416.5 127.5L433.5 110.5L450.5 110.5L467.5 110.5L484.5 110.5L501.5 110.5M382.5 127.5L399.5 110.5M178.5 161.5L195.5 144.5M467.5 127.5L484.5 144.5L501.5 144.5M450.5 127.5L467.5 144.5M433.5 127.5L450.5 144.5M-8.5 195.5L8.5 195.5L25.5 178.5L42.5 178.5L59.5 178.5L76.5 178.5L93.5 178.5L110.5 178.5L127.5 178.5L144.5 161.5L161.5 161.5L178.5 161.5L195.5 161.5L212.5 144.5L229.5 127.5L246.5 127.5L263.5 127.5L280.5 127.5L297.5 127.5L314.5 127.5L331.5 127.5L348.5 127.5L365.5 127.5L382.5 127.5L399.5 127.5L416.5 127.5L433.5 127.5L450.5 127.5L467.5 127.5L484.5 127.5L501.5 127.5" stroke="#3a7cc3" stroke-width="2.83"></path><path d="M497.25 127.5 a4.25 4.25 0 1 0 8.5 0 a4.25 4.25 0 1 0 -8.5 0zM412.25 144.5 a4.25 4.25 0 1 0 8.5 0 a4.25 4.25 0 1 0 -8.5 0zM497.25 110.5 a4.25 4.25 0 1 0 8.5 0 a4.25 4.25 0 1 0 -8.5 0zM395.25 110.5 a4.25 4.25 0 1 0 8.5 0 a4.25 4.25 0 1 0 -8.5 0zM191.25 144.5 a4.25 4.25 0 1 0 8.5 0 a4.25 4.25 0 1 0 -8.5 0zM497.25 144.5 a4.25 4.25 0 1 0 8.5 0 a4.25 4.25 0 1 0 -8.5 0zM463.25 144.5 a4.25 4.25 0 1 0 8.5 0 a4.25 4.25 0 1 0 -8.5 0zM446.25 144.5 a4.25 4.25 0 1 0 8.5 0 a4.25 4.25 0 1 0 -8.5 0z" fill="#3a7cc3"></path><path d="M739.5 433.5L756.5 450.5L773.5 450.5L790.5 450.5L807.5 450.5L824.5 467.5L841.5 467.5L858.5 467.5L875.5 467.5L892.5 467.5L909.5 467.5L926.5 467.5L943.5 467.5M365.5 416.5L382.5 433.5L399.5 433.5L416.5 433.5L433.5 433.5M348.5 399.5L365.5 399.5M569.5 416.5L586.5 433.5L603.5 450.5L620.5 450.5L637.5 450.5L654.5 450.5L671.5 450.5L688.5 467.5L705.5 467.5L722.5 467.5L739.5 467.5M977.5 450.5L994.5 467.5M960.5 450.5L977.5 467.5L994.5 484.5L1011.5 484.5L1028.5 501.5L1045.5 501.5L1062.5 501.5L1079.5 501.5M450.5 399.5L467.5 416.5L484.5 416.5L501.5 416.5L518.5 433.5L535.5 433.5L552.5 433.5L569.5 433.5L586.5 450.5L603.5 467.5L620.5 467.5L637.5 467.5L654.5 467.5L671.5 467.5L688.5 484.5L705.5 484.5L722.5 484.5L739.5 484.5L756.5 484.5L773.5 484.5L790.5 484.5M382.5 416.5L399.5 416.5L416.5 416.5L433.5 416.5L450.5 416.5L467.5 433.5L484.5 433.5L501.5 433.5L518.5 450.5L535.5 467.5L552.5 467.5L569.5 467.5L586.5 467.5L603.5 484.5L620.5 484.5L637.5 484.5L654.5 484.5M1062.5 450.5L1079.5 450.5M331.5 399.5L348.5 416.5L365.5 433.5L382.5 450.5L399.5 450.5L416.5 450.5L433.5 450.5L450.5 450.5L467.5 450.5L484.5 450.5L501.5 450.5L518.5 467.5L535.5 484.5L552.5 484.5L569.5 484.5L586.5 484.5L603.5 501.5L620.5 501.5L637.5 501.5L654.5 501.5L671.5 501.5L688.5 501.5L705.5 501.5L722.5 501.5L739.5 501.5L756.5 501.5L773.5 501.5L790.5 501.5M1011.5 450.5L1028.5 467.5L1045.5 467.5L1062.5 467.5L1079.5 484.5L1096.5 484.5L1113.5 501.5L1130.5 501.5L1147.5 484.5L1164.5 484.5L1181.5 484.5L1198.5 484.5L1215.5 501.5L1232.5 501.5L1249.5 501.5M620.5 416.5L637.5 416.5M705.5 433.5L722.5 450.5M688.5 433.5L705.5 450.5M-8.5 365.5L8.5 365.5L25.5 365.5L42.5 365.5L59.5 382.5L76.5 382.5L93.5 382.5L110.5 382.5L127.5 382.5L144.5 399.5L161.5 399.5L178.5 399.5L195.5 399.5L212.5 399.5L229.5 399.5L246.5 399.5L263.5 399.5L280.5 399.5L297.5 399.5L314.5 399.5L331.5 399.5L348.5 399.5L365.5 416.5L382.5 416.5L399.5 399.5L416.5 399.5L433.5 399.5L450.5 399.5L467.5 399.5L484.5 399.5L501.5 399.5L518.5 416.5L535.5 416.5L552.5 416.5L569.5 416.5L586.5 416.5L603.5 416.5L620.5 416.5L637.5 433.5L654.5 433.5L671.5 433.5L688.5 433.5L705.5 433.5L722.5 433.5L739.5 433.5L756.5 433.5L773.5 433.5L790.5 433.5L807.5 433.5L824.5 450.5L841.5 450.5L858.5 450.5L875.5 450.5L892.5 450.5L909.5 450.5L926.5 450.5L943.5 450.5L960.5 450.5L977.5 450.5L994.5 450.5L1011.5 450.5L1028.5 450.5L1045.5 450.5L1062.5 450.5L1079.5 467.5" stroke="#dd1133" stroke-width="2.83"></path><path d="M1075.25 467.5 a4.25 4.25 0 1 0 8.5 0 a4.25 4.25 0 1 0 -8.5 0zM939.25 467.5 a4.25 4.25 0 1 0 8.5 0 a4.25 4.25 0 1 0 -8.5 0zM429.25 433.5 a4.25 4.25 0 1 0 8.5 0 a4.25 4.25 0 1 0 -8.5 0zM361.25 399.5 a4.25 4.25 0 1 0 8.5 0 a4.25 4.25 0 1 0 -8.5 0zM735.25 467.5 a4.25 4.25 0 1 0 8.5 0 a4.25 4.25 0 1 0 -8.5 0zM990.25 467.5 a4.25 4.25 0 1 0 8.5 0 a4.25 4.25 0 1 0 -8.5 0zM1075.25 501.5 a4.25 4.25 0 1 0 8.5 0 a4.25 4.25 0 1 0 -8.5 0zM786.25 484.5 a4.25 4.25 0 1 0 8.5 0 a4.25 4.25 0 1 0 -8.5 0zM650.25 484.5 a4.25 4.25 0 1 0 8.5 0 a4.25 4.25 0 1 0 -8.5 0zM1075.25 450.5 a4.25 4.25 0 1 0 8.5 0 a4.25 4.25 0 1 0 -8.5 0zM786.25 501.5 a4.25 4.25 0 1 0 8.5 0 a4.25 4.25 0 1 0 -8.5 0zM1245.25 501.5 a4.25 4.25 0 1 0 8.5 0 a4.25 4.25 0 1 0 -8.5 0zM633.25 416.5 a4.25 4.25 0 1 0 8.5 0 a4.25 4.25 0 1 0 -8.5 0zM718.25 450.5 a4.25 4.25 0 1 0 8.5 0 a4.25 4.25 0 1 0 -8.5 0zM701.25 450.5 a4.25 4.25 0 1 0 8.5 0 a4.25 4.25 0 1 0 -8.5 0z" fill="#dd1133"></path><path d="M365.5 93.5L382.5 110.5M671.5 127.5L688.5 110.5L705.5 110.5L722.5 110.5L739.5 110.5L756.5 110.5L773.5 110.5L790.5 110.5L807.5 110.5L824.5 110.5L841.5 110.5L858.5 110.5L875.5 127.5L892.5 127.5L909.5 127.5L926.5 127.5L943.5 127.5L960.5 127.5M620.5 93.5L637.5 110.5L654.5 127.5M654.5 110.5L671.5 110.5L688.5 93.5M756.5 144.5L773.5 127.5L790.5 127.5L807.5 127.5L824.5 144.5L841.5 144.5L858.5 144.5L875.5 144.5L892.5 144.5L909.5 144.5M314.5 110.5L331.5 110.5L348.5 110.5L365.5 110.5M518.5 93.5L535.5 110.5M552.5 93.5L569.5 110.5L586.5 110.5M637.5 93.5L654.5 93.5L671.5 93.5L688.5 76.5L705.5 76.5L722.5 76.5L739.5 76.5L756.5 76.5L773.5 76.5L790.5 76.5L807.5 76.5M739.5 144.5L756.5 127.5M-8.5 178.5L8.5 161.5L25.5 161.5L42.5 161.5L59.5 161.5L76.5 161.5L93.5 161.5L110.5 161.5L127.5 161.5L144.5 144.5L161.5 144.5L178.5 127.5L195.5 127.5L212.5 127.5L229.5 110.5L246.5 110.5L263.5 110.5L280.5 110.5L297.5 110.5L314.5 110.5L331.5 93.5L348.5 93.5L365.5 93.5L382.5 93.5L399.5 93.5L416.5 93.5L433.5 93.5L450.5 93.5L467.5 93.5L484.5 93.5L501.5 93.5L518.5 93.5L535.5 93.5L552.5 93.5L569.5 93.5L586.5 93.5L603.5 93.5L620.5 93.5L637.5 93.5L654.5 110.5L671.5 127.5L688.5 127.5L705.5 127.5L722.5 127.5L739.5 144.5L756.5 144.5L773.5 144.5L790.5 144.5L807.5 144.5" stroke="#dd1133" stroke-width="2.83"></path><path d="M803.25 144.5 a4.25 4.25 0 1 0 8.5 0 a4.25 4.25 0 1 0 -8.5 0zM378.25 110.5 a4.25 4.25 0 1 0 8.5 0 a4.25 4.25 0 1 0 -8.5 0zM956.25 127.5 a4.25 4.25 0 1 0 8.5 0 a4.25 4.25 0 1 0 -8.5 0zM650.25 127.5 a4.25 4.25 0 1 0 8.5 0 a4.25 4.25 0 1 0 -8.5 0zM684.25 93.5 a4.25 4.25 0 1 0 8.5 0 a4.25 4.25 0 1 0 -8.5 0zM905.25 144.5 a4.25 4.25 0 1 0 8.5 0 a4.25 4.25 0 1 0 -8.5 0zM361.25 110.5 a4.25 4.25 0 1 0 8.5 0 a4.25 4.25 0 1 0 -8.5 0zM531.25 110.5 a4.25 4.25 0 1 0 8.5 0 a4.25 4.25 0 1 0 -8.5 0zM582.25 110.5 a4.25 4.25 0 1 0 8.5 0 a4.25 4.25 0 1 0 -8.5 0zM803.25 76.5 a4.25 4.25 0 1 0 8.5 0 a4.25 4.25 0 1 0 -8.5 0zM752.25 127.5 a4.25 4.25 0 1 0 8.5 0 a4.25 4.25 0 1 0 -8.5 0z" fill="#dd1133"></path><path d="M25.5 382.5L42.5 399.5M-8.5 382.5L8.5 382.5L25.5 382.5L42.5 382.5L59.5 399.5L76.5 399.5L93.5 399.5L110.5 399.5L127.5 399.5L144.5 416.5L161.5 416.5L178.5 416.5L195.5 416.5L212.5 416.5L229.5 416.5L246.5 416.5L263.5 416.5L280.5 416.5L297.5 416.5L314.5 416.5" stroke="#dd1133" stroke-width="2.83"></path><path d="M310.25 416.5 a4.25 4.25 0 1 0 8.5 0 a4.25 4.25 0 1 0 -8.5 0zM38.25 399.5 a4.25 4.25 0 1 0 8.5 0 a4.25 4.25 0 1 0 -8.5 0z" fill="#dd1133"></path><path d="M739.5 42.5L756.5 59.5L773.5 59.5L790.5 59.5M688.5 42.5L705.5 59.5L722.5 59.5L739.5 59.5M620.5 76.5L637.5 76.5L654.5 76.5L671.5 76.5L688.5 59.5M76.5 144.5L93.5 127.5M569.5 76.5L586.5 59.5L603.5 59.5L620.5 59.5L637.5 42.5L654.5 42.5M552.5 76.5L569.5 59.5L586.5 42.5L603.5 42.5L620.5 42.5M195.5 110.5L212.5 93.5M841.5 42.5L858.5 59.5M654.5 59.5L671.5 59.5M807.5 42.5L824.5 59.5L841.5 59.5L858.5 76.5L875.5 76.5L892.5 76.5M-8.5 161.5L8.5 144.5L25.5 144.5L42.5 144.5L59.5 144.5L76.5 144.5L93.5 144.5L110.5 144.5L127.5 144.5L144.5 127.5L161.5 127.5L178.5 110.5L195.5 110.5L212.5 110.5L229.5 93.5L246.5 93.5L263.5 93.5L280.5 93.5L297.5 93.5L314.5 93.5L331.5 76.5L348.5 76.5L365.5 76.5L382.5 76.5L399.5 76.5L416.5 76.5L433.5 76.5L450.5 76.5L467.5 76.5L484.5 76.5L501.5 76.5L518.5 76.5L535.5 76.5L552.5 76.5L569.5 76.5L586.5 76.5L603.5 76.5L620.5 76.5L637.5 59.5L654.5 59.5L671.5 42.5L688.5 42.5L705.5 42.5L722.5 42.5L739.5 42.5L756.5 42.5L773.5 42.5L790.5 42.5L807.5 42.5L824.5 42.5L841.5 42.5L858.5 42.5" stroke="#3a7cc3" stroke-width="2.83"></path><path d="M854.25 42.5 a4.25 4.25 0 1 0 8.5 0 a4.25 4.25 0 1 0 -8.5 0zM786.25 59.5 a4.25 4.25 0 1 0 8.5 0 a4.25 4.25 0 1 0 -8.5 0zM735.25 59.5 a4.25 4.25 0 1 0 8.5 0 a4.25 4.25 0 1 0 -8.5 0zM684.25 59.5 a4.25 4.25 0 1 0 8.5 0 a4.25 4.25 0 1 0 -8.5 0zM89.25 127.5 a4.25 4.25 0 1 0 8.5 0 a4.25 4.25 0 1 0 -8.5 0zM650.25 42.5 a4.25 4.25 0 1 0 8.5 0 a4.25 4.25 0 1 0 -8.5 0zM616.25 42.5 a4.25 4.25 0 1 0 8.5 0 a4.25 4.25 0 1 0 -8.5 0zM208.25 93.5 a4.25 4.25 0 1 0 8.5 0 a4.25 4.25 0 1 0 -8.5 0zM854.25 59.5 a4.25 4.25 0 1 0 8.5 0 a4.25 4.25 0 1 0 -8.5 0zM667.25 59.5 a4.25 4.25 0 1 0 8.5 0 a4.25 4.25 0 1 0 -8.5 0zM888.25 76.5 a4.25 4.25 0 1 0 8.5 0 a4.25 4.25 0 1 0 -8.5 0z" fill="#3a7cc3"></path><path d="M297.5 433.5L314.5 450.5L331.5 450.5M110.5 416.5L127.5 433.5L144.5 450.5L161.5 450.5L178.5 450.5L195.5 467.5L212.5 467.5M246.5 433.5L263.5 450.5L280.5 450.5M76.5 416.5L93.5 433.5L110.5 433.5M25.5 416.5L42.5 433.5L59.5 433.5L76.5 433.5M-8.5 399.5L8.5 399.5L25.5 416.5L42.5 416.5L59.5 416.5L76.5 416.5L93.5 416.5L110.5 416.5L127.5 416.5L144.5 433.5L161.5 433.5L178.5 433.5L195.5 433.5L212.5 433.5L229.5 433.5L246.5 433.5L263.5 433.5L280.5 433.5L297.5 433.5L314.5 433.5" stroke="#3a7cc3" stroke-width="2.83"></path><path d="M310.25 433.5 a4.25 4.25 0 1 0 8.5 0 a4.25 4.25 0 1 0 -8.5 0zM327.25 450.5 a4.25 4.25 0 1 0 8.5 0 a4.25 4.25 0 1 0 -8.5 0zM208.25 467.5 a4.25 4.25 0 1 0 8.5 0 a4.25 4.25 0 1 0 -8.5 0zM276.25 450.5 a4.25 4.25 0 1 0 8.5 0 a4.25 4.25 0 1 0 -8.5 0zM106.25 433.5 a4.25 4.25 0 1 0 8.5 0 a4.25 4.25 0 1 0 -8.5 0zM72.25 433.5 a4.25 4.25 0 1 0 8.5 0 a4.25 4.25 0 1 0 -8.5 0z" fill="#3a7cc3"></path><path d="M518.5 59.5L535.5 42.5L552.5 42.5L569.5 42.5M467.5 59.5L484.5 42.5L501.5 42.5L518.5 42.5M144.5 110.5L161.5 93.5M8.5 127.5L25.5 110.5L42.5 110.5M297.5 76.5L314.5 59.5L331.5 42.5M93.5 110.5L110.5 110.5M195.5 76.5L212.5 59.5L229.5 59.5L246.5 59.5L263.5 59.5M365.5 59.5L382.5 42.5L399.5 42.5L416.5 42.5L433.5 42.5M-8.5 144.5L8.5 127.5L25.5 127.5L42.5 127.5L59.5 127.5L76.5 110.5L93.5 110.5L110.5 127.5L127.5 127.5L144.5 110.5L161.5 110.5L178.5 93.5L195.5 76.5L212.5 76.5L229.5 76.5L246.5 76.5L263.5 76.5L280.5 76.5L297.5 76.5L314.5 76.5L331.5 59.5L348.5 59.5L365.5 59.5L382.5 59.5L399.5 59.5L416.5 59.5L433.5 59.5L450.5 59.5L467.5 59.5L484.5 59.5L501.5 59.5L518.5 59.5L535.5 59.5" stroke="rgba(82, 255, 4, 1)" stroke-width="2.83"></path><path d="M531.25 59.5 a4.25 4.25 0 1 0 8.5 0 a4.25 4.25 0 1 0 -8.5 0zM565.25 42.5 a4.25 4.25 0 1 0 8.5 0 a4.25 4.25 0 1 0 -8.5 0zM514.25 42.5 a4.25 4.25 0 1 0 8.5 0 a4.25 4.25 0 1 0 -8.5 0zM157.25 93.5 a4.25 4.25 0 1 0 8.5 0 a4.25 4.25 0 1 0 -8.5 0zM38.25 110.5 a4.25 4.25 0 1 0 8.5 0 a4.25 4.25 0 1 0 -8.5 0zM327.25 42.5 a4.25 4.25 0 1 0 8.5 0 a4.25 4.25 0 1 0 -8.5 0zM106.25 110.5 a4.25 4.25 0 1 0 8.5 0 a4.25 4.25 0 1 0 -8.5 0zM259.25 59.5 a4.25 4.25 0 1 0 8.5 0 a4.25 4.25 0 1 0 -8.5 0zM429.25 42.5 a4.25 4.25 0 1 0 8.5 0 a4.25 4.25 0 1 0 -8.5 0z" fill="rgba(82, 255, 4, 1)"></path></g></g><defs><mask id="SvgjsMask1302"><rect width="1440" height="560" fill="#ffffff"></rect></mask><linearGradient x1="84.72%" y1="-39.29%" x2="15.28%" y2="139.29%" gradientUnits="userSpaceOnUse" id="SvgjsLinearGradient1303"><stop stop-color="#0e2a47" offset="0"></stop><stop stop-color="#00459e" offset="1"></stop></linearGradient><mask id="SvgjsMask1304"><rect width="1440" height="560" fill="white"></rect><path d="M227.37 297.5 a2.13 2.13 0 1 0 4.26 0 a2.13 2.13 0 1 0 -4.26 0zM210.37 280.5 a2.13 2.13 0 1 0 4.26 0 a2.13 2.13 0 1 0 -4.26 0zM176.37 246.5 a2.13 2.13 0 1 0 4.26 0 a2.13 2.13 0 1 0 -4.26 0zM176.37 280.5 a2.13 2.13 0 1 0 4.26 0 a2.13 2.13 0 1 0 -4.26 0z" fill="black"></path><path d="M159.37 246.5 a2.13 2.13 0 1 0 4.26 0 a2.13 2.13 0 1 0 -4.26 0zM125.37 263.5 a2.13 2.13 0 1 0 4.26 0 a2.13 2.13 0 1 0 -4.26 0z" fill="black"></path><path d="M1196.37 331.5 a2.13 2.13 0 1 0 4.26 0 a2.13 2.13 0 1 0 -4.26 0zM1264.37 297.5 a2.13 2.13 0 1 0 4.26 0 a2.13 2.13 0 1 0 -4.26 0zM737.37 280.5 a2.13 2.13 0 1 0 4.26 0 a2.13 2.13 0 1 0 -4.26 0zM516.37 348.5 a2.13 2.13 0 1 0 4.26 0 a2.13 2.13 0 1 0 -4.26 0zM720.37 314.5 a2.13 2.13 0 1 0 4.26 0 a2.13 2.13 0 1 0 -4.26 0zM1264.37 331.5 a2.13 2.13 0 1 0 4.26 0 a2.13 2.13 0 1 0 -4.26 0zM822.37 297.5 a2.13 2.13 0 1 0 4.26 0 a2.13 2.13 0 1 0 -4.26 0zM1264.37 365.5 a2.13 2.13 0 1 0 4.26 0 a2.13 2.13 0 1 0 -4.26 0zM567.37 331.5 a2.13 2.13 0 1 0 4.26 0 a2.13 2.13 0 1 0 -4.26 0zM669.37 280.5 a2.13 2.13 0 1 0 4.26 0 a2.13 2.13 0 1 0 -4.26 0zM1162.37 348.5 a2.13 2.13 0 1 0 4.26 0 a2.13 2.13 0 1 0 -4.26 0zM363.37 348.5 a2.13 2.13 0 1 0 4.26 0 a2.13 2.13 0 1 0 -4.26 0zM754.37 297.5 a2.13 2.13 0 1 0 4.26 0 a2.13 2.13 0 1 0 -4.26 0zM873.37 297.5 a2.13 2.13 0 1 0 4.26 0 a2.13 2.13 0 1 0 -4.26 0zM1213.37 382.5 a2.13 2.13 0 1 0 4.26 0 a2.13 2.13 0 1 0 -4.26 0zM975.37 314.5 a2.13 2.13 0 1 0 4.26 0 a2.13 2.13 0 1 0 -4.26 0zM533.37 280.5 a2.13 2.13 0 1 0 4.26 0 a2.13 2.13 0 1 0 -4.26 0zM244.37 331.5 a2.13 2.13 0 1 0 4.26 0 a2.13 2.13 0 1 0 -4.26 0zM788.37 314.5 a2.13 2.13 0 1 0 4.26 0 a2.13 2.13 0 1 0 -4.26 0z" fill="black"></path><path d="M1060.37 229.5 a2.13 2.13 0 1 0 4.26 0 a2.13 2.13 0 1 0 -4.26 0zM720.37 246.5 a2.13 2.13 0 1 0 4.26 0 a2.13 2.13 0 1 0 -4.26 0zM295.37 212.5 a2.13 2.13 0 1 0 4.26 0 a2.13 2.13 0 1 0 -4.26 0zM550.37 263.5 a2.13 2.13 0 1 0 4.26 0 a2.13 2.13 0 1 0 -4.26 0zM363.37 246.5 a2.13 2.13 0 1 0 4.26 0 a2.13 2.13 0 1 0 -4.26 0zM652.37 246.5 a2.13 2.13 0 1 0 4.26 0 a2.13 2.13 0 1 0 -4.26 0zM193.37 212.5 a2.13 2.13 0 1 0 4.26 0 a2.13 2.13 0 1 0 -4.26 0zM1043.37 212.5 a2.13 2.13 0 1 0 4.26 0 a2.13 2.13 0 1 0 -4.26 0zM1060.37 246.5 a2.13 2.13 0 1 0 4.26 0 a2.13 2.13 0 1 0 -4.26 0zM805.37 212.5 a2.13 2.13 0 1 0 4.26 0 a2.13 2.13 0 1 0 -4.26 0zM414.37 263.5 a2.13 2.13 0 1 0 4.26 0 a2.13 2.13 0 1 0 -4.26 0zM1043.37 263.5 a2.13 2.13 0 1 0 4.26 0 a2.13 2.13 0 1 0 -4.26 0zM278.37 246.5 a2.13 2.13 0 1 0 4.26 0 a2.13 2.13 0 1 0 -4.26 0zM635.37 263.5 a2.13 2.13 0 1 0 4.26 0 a2.13 2.13 0 1 0 -4.26 0zM380.37 263.5 a2.13 2.13 0 1 0 4.26 0 a2.13 2.13 0 1 0 -4.26 0zM363.37 212.5 a2.13 2.13 0 1 0 4.26 0 a2.13 2.13 0 1 0 -4.26 0zM261.37 212.5 a2.13 2.13 0 1 0 4.26 0 a2.13 2.13 0 1 0 -4.26 0z" fill="black"></path><path d="M278.37 348.5 a2.13 2.13 0 1 0 4.26 0 a2.13 2.13 0 1 0 -4.26 0z" fill="black"></path><path d="M329.37 195.5 a2.13 2.13 0 1 0 4.26 0 a2.13 2.13 0 1 0 -4.26 0zM261.37 178.5 a2.13 2.13 0 1 0 4.26 0 a2.13 2.13 0 1 0 -4.26 0zM244.37 161.5 a2.13 2.13 0 1 0 4.26 0 a2.13 2.13 0 1 0 -4.26 0zM108.37 212.5 a2.13 2.13 0 1 0 4.26 0 a2.13 2.13 0 1 0 -4.26 0zM57.37 212.5 a2.13 2.13 0 1 0 4.26 0 a2.13 2.13 0 1 0 -4.26 0zM295.37 178.5 a2.13 2.13 0 1 0 4.26 0 a2.13 2.13 0 1 0 -4.26 0z" fill="black"></path><path d="M805.37 365.5 a2.13 2.13 0 1 0 4.26 0 a2.13 2.13 0 1 0 -4.26 0zM805.37 348.5 a2.13 2.13 0 1 0 4.26 0 a2.13 2.13 0 1 0 -4.26 0zM584.37 348.5 a2.13 2.13 0 1 0 4.26 0 a2.13 2.13 0 1 0 -4.26 0zM805.37 382.5 a2.13 2.13 0 1 0 4.26 0 a2.13 2.13 0 1 0 -4.26 0zM720.37 365.5 a2.13 2.13 0 1 0 4.26 0 a2.13 2.13 0 1 0 -4.26 0zM125.37 348.5 a2.13 2.13 0 1 0 4.26 0 a2.13 2.13 0 1 0 -4.26 0zM414.37 348.5 a2.13 2.13 0 1 0 4.26 0 a2.13 2.13 0 1 0 -4.26 0zM652.37 365.5 a2.13 2.13 0 1 0 4.26 0 a2.13 2.13 0 1 0 -4.26 0zM210.37 365.5 a2.13 2.13 0 1 0 4.26 0 a2.13 2.13 0 1 0 -4.26 0zM686.37 348.5 a2.13 2.13 0 1 0 4.26 0 a2.13 2.13 0 1 0 -4.26 0zM635.37 348.5 a2.13 2.13 0 1 0 4.26 0 a2.13 2.13 0 1 0 -4.26 0zM312.37 348.5 a2.13 2.13 0 1 0 4.26 0 a2.13 2.13 0 1 0 -4.26 0zM74.37 348.5 a2.13 2.13 0 1 0 4.26 0 a2.13 2.13 0 1 0 -4.26 0z" fill="black"></path><path d="M1230.37 212.5 a2.13 2.13 0 1 0 4.26 0 a2.13 2.13 0 1 0 -4.26 0zM1111.37 195.5 a2.13 2.13 0 1 0 4.26 0 a2.13 2.13 0 1 0 -4.26 0zM1196.37 195.5 a2.13 2.13 0 1 0 4.26 0 a2.13 2.13 0 1 0 -4.26 0zM1230.37 195.5 a2.13 2.13 0 1 0 4.26 0 a2.13 2.13 0 1 0 -4.26 0zM1196.37 161.5 a2.13 2.13 0 1 0 4.26 0 a2.13 2.13 0 1 0 -4.26 0zM856.37 178.5 a2.13 2.13 0 1 0 4.26 0 a2.13 2.13 0 1 0 -4.26 0zM516.37 144.5 a2.13 2.13 0 1 0 4.26 0 a2.13 2.13 0 1 0 -4.26 0zM839.37 178.5 a2.13 2.13 0 1 0 4.26 0 a2.13 2.13 0 1 0 -4.26 0zM465.37 212.5 a2.13 2.13 0 1 0 4.26 0 a2.13 2.13 0 1 0 -4.26 0zM550.37 178.5 a2.13 2.13 0 1 0 4.26 0 a2.13 2.13 0 1 0 -4.26 0zM1264.37 229.5 a2.13 2.13 0 1 0 4.26 0 a2.13 2.13 0 1 0 -4.26 0zM788.37 195.5 a2.13 2.13 0 1 0 4.26 0 a2.13 2.13 0 1 0 -4.26 0zM1077.37 178.5 a2.13 2.13 0 1 0 4.26 0 a2.13 2.13 0 1 0 -4.26 0zM754.37 195.5 a2.13 2.13 0 1 0 4.26 0 a2.13 2.13 0 1 0 -4.26 0zM1230.37 178.5 a2.13 2.13 0 1 0 4.26 0 a2.13 2.13 0 1 0 -4.26 0zM652.37 144.5 a2.13 2.13 0 1 0 4.26 0 a2.13 2.13 0 1 0 -4.26 0zM992.37 178.5 a2.13 2.13 0 1 0 4.26 0 a2.13 2.13 0 1 0 -4.26 0zM720.37 212.5 a2.13 2.13 0 1 0 4.26 0 a2.13 2.13 0 1 0 -4.26 0zM431.37 195.5 a2.13 2.13 0 1 0 4.26 0 a2.13 2.13 0 1 0 -4.26 0z" fill="black"></path><path d="M1128.37 433.5 a2.13 2.13 0 1 0 4.26 0 a2.13 2.13 0 1 0 -4.26 0zM1264.37 433.5 a2.13 2.13 0 1 0 4.26 0 a2.13 2.13 0 1 0 -4.26 0zM380.37 399.5 a2.13 2.13 0 1 0 4.26 0 a2.13 2.13 0 1 0 -4.26 0zM924.37 399.5 a2.13 2.13 0 1 0 4.26 0 a2.13 2.13 0 1 0 -4.26 0zM1213.37 399.5 a2.13 2.13 0 1 0 4.26 0 a2.13 2.13 0 1 0 -4.26 0zM1264.37 450.5 a2.13 2.13 0 1 0 4.26 0 a2.13 2.13 0 1 0 -4.26 0zM788.37 382.5 a2.13 2.13 0 1 0 4.26 0 a2.13 2.13 0 1 0 -4.26 0zM771.37 382.5 a2.13 2.13 0 1 0 4.26 0 a2.13 2.13 0 1 0 -4.26 0zM754.37 365.5 a2.13 2.13 0 1 0 4.26 0 a2.13 2.13 0 1 0 -4.26 0zM839.37 433.5 a2.13 2.13 0 1 0 4.26 0 a2.13 2.13 0 1 0 -4.26 0zM176.37 365.5 a2.13 2.13 0 1 0 4.26 0 a2.13 2.13 0 1 0 -4.26 0zM1060.37 416.5 a2.13 2.13 0 1 0 4.26 0 a2.13 2.13 0 1 0 -4.26 0zM890.37 416.5 a2.13 2.13 0 1 0 4.26 0 a2.13 2.13 0 1 0 -4.26 0zM1128.37 467.5 a2.13 2.13 0 1 0 4.26 0 a2.13 2.13 0 1 0 -4.26 0zM652.37 382.5 a2.13 2.13 0 1 0 4.26 0 a2.13 2.13 0 1 0 -4.26 0zM567.37 382.5 a2.13 2.13 0 1 0 4.26 0 a2.13 2.13 0 1 0 -4.26 0zM57.37 348.5 a2.13 2.13 0 1 0 4.26 0 a2.13 2.13 0 1 0 -4.26 0zM159.37 365.5 a2.13 2.13 0 1 0 4.26 0 a2.13 2.13 0 1 0 -4.26 0z" fill="black"></path><path d="M499.37 127.5 a2.13 2.13 0 1 0 4.26 0 a2.13 2.13 0 1 0 -4.26 0zM414.37 144.5 a2.13 2.13 0 1 0 4.26 0 a2.13 2.13 0 1 0 -4.26 0zM499.37 110.5 a2.13 2.13 0 1 0 4.26 0 a2.13 2.13 0 1 0 -4.26 0zM397.37 110.5 a2.13 2.13 0 1 0 4.26 0 a2.13 2.13 0 1 0 -4.26 0zM193.37 144.5 a2.13 2.13 0 1 0 4.26 0 a2.13 2.13 0 1 0 -4.26 0zM499.37 144.5 a2.13 2.13 0 1 0 4.26 0 a2.13 2.13 0 1 0 -4.26 0zM465.37 144.5 a2.13 2.13 0 1 0 4.26 0 a2.13 2.13 0 1 0 -4.26 0zM448.37 144.5 a2.13 2.13 0 1 0 4.26 0 a2.13 2.13 0 1 0 -4.26 0z" fill="black"></path><path d="M1077.37 467.5 a2.13 2.13 0 1 0 4.26 0 a2.13 2.13 0 1 0 -4.26 0zM941.37 467.5 a2.13 2.13 0 1 0 4.26 0 a2.13 2.13 0 1 0 -4.26 0zM431.37 433.5 a2.13 2.13 0 1 0 4.26 0 a2.13 2.13 0 1 0 -4.26 0zM363.37 399.5 a2.13 2.13 0 1 0 4.26 0 a2.13 2.13 0 1 0 -4.26 0zM737.37 467.5 a2.13 2.13 0 1 0 4.26 0 a2.13 2.13 0 1 0 -4.26 0zM992.37 467.5 a2.13 2.13 0 1 0 4.26 0 a2.13 2.13 0 1 0 -4.26 0zM1077.37 501.5 a2.13 2.13 0 1 0 4.26 0 a2.13 2.13 0 1 0 -4.26 0zM788.37 484.5 a2.13 2.13 0 1 0 4.26 0 a2.13 2.13 0 1 0 -4.26 0zM652.37 484.5 a2.13 2.13 0 1 0 4.26 0 a2.13 2.13 0 1 0 -4.26 0zM1077.37 450.5 a2.13 2.13 0 1 0 4.26 0 a2.13 2.13 0 1 0 -4.26 0zM788.37 501.5 a2.13 2.13 0 1 0 4.26 0 a2.13 2.13 0 1 0 -4.26 0zM1247.37 501.5 a2.13 2.13 0 1 0 4.26 0 a2.13 2.13 0 1 0 -4.26 0zM635.37 416.5 a2.13 2.13 0 1 0 4.26 0 a2.13 2.13 0 1 0 -4.26 0zM720.37 450.5 a2.13 2.13 0 1 0 4.26 0 a2.13 2.13 0 1 0 -4.26 0zM703.37 450.5 a2.13 2.13 0 1 0 4.26 0 a2.13 2.13 0 1 0 -4.26 0z" fill="black"></path><path d="M805.37 144.5 a2.13 2.13 0 1 0 4.26 0 a2.13 2.13 0 1 0 -4.26 0zM380.37 110.5 a2.13 2.13 0 1 0 4.26 0 a2.13 2.13 0 1 0 -4.26 0zM958.37 127.5 a2.13 2.13 0 1 0 4.26 0 a2.13 2.13 0 1 0 -4.26 0zM652.37 127.5 a2.13 2.13 0 1 0 4.26 0 a2.13 2.13 0 1 0 -4.26 0zM686.37 93.5 a2.13 2.13 0 1 0 4.26 0 a2.13 2.13 0 1 0 -4.26 0zM907.37 144.5 a2.13 2.13 0 1 0 4.26 0 a2.13 2.13 0 1 0 -4.26 0zM363.37 110.5 a2.13 2.13 0 1 0 4.26 0 a2.13 2.13 0 1 0 -4.26 0zM533.37 110.5 a2.13 2.13 0 1 0 4.26 0 a2.13 2.13 0 1 0 -4.26 0zM584.37 110.5 a2.13 2.13 0 1 0 4.26 0 a2.13 2.13 0 1 0 -4.26 0zM805.37 76.5 a2.13 2.13 0 1 0 4.26 0 a2.13 2.13 0 1 0 -4.26 0zM754.37 127.5 a2.13 2.13 0 1 0 4.26 0 a2.13 2.13 0 1 0 -4.26 0z" fill="black"></path><path d="M312.37 416.5 a2.13 2.13 0 1 0 4.26 0 a2.13 2.13 0 1 0 -4.26 0zM40.37 399.5 a2.13 2.13 0 1 0 4.26 0 a2.13 2.13 0 1 0 -4.26 0z" fill="black"></path><path d="M856.37 42.5 a2.13 2.13 0 1 0 4.26 0 a2.13 2.13 0 1 0 -4.26 0zM788.37 59.5 a2.13 2.13 0 1 0 4.26 0 a2.13 2.13 0 1 0 -4.26 0zM737.37 59.5 a2.13 2.13 0 1 0 4.26 0 a2.13 2.13 0 1 0 -4.26 0zM686.37 59.5 a2.13 2.13 0 1 0 4.26 0 a2.13 2.13 0 1 0 -4.26 0zM91.37 127.5 a2.13 2.13 0 1 0 4.26 0 a2.13 2.13 0 1 0 -4.26 0zM652.37 42.5 a2.13 2.13 0 1 0 4.26 0 a2.13 2.13 0 1 0 -4.26 0zM618.37 42.5 a2.13 2.13 0 1 0 4.26 0 a2.13 2.13 0 1 0 -4.26 0zM210.37 93.5 a2.13 2.13 0 1 0 4.26 0 a2.13 2.13 0 1 0 -4.26 0zM856.37 59.5 a2.13 2.13 0 1 0 4.26 0 a2.13 2.13 0 1 0 -4.26 0zM669.37 59.5 a2.13 2.13 0 1 0 4.26 0 a2.13 2.13 0 1 0 -4.26 0zM890.37 76.5 a2.13 2.13 0 1 0 4.26 0 a2.13 2.13 0 1 0 -4.26 0z" fill="black"></path><path d="M312.37 433.5 a2.13 2.13 0 1 0 4.26 0 a2.13 2.13 0 1 0 -4.26 0zM329.37 450.5 a2.13 2.13 0 1 0 4.26 0 a2.13 2.13 0 1 0 -4.26 0zM210.37 467.5 a2.13 2.13 0 1 0 4.26 0 a2.13 2.13 0 1 0 -4.26 0zM278.37 450.5 a2.13 2.13 0 1 0 4.26 0 a2.13 2.13 0 1 0 -4.26 0zM108.37 433.5 a2.13 2.13 0 1 0 4.26 0 a2.13 2.13 0 1 0 -4.26 0zM74.37 433.5 a2.13 2.13 0 1 0 4.26 0 a2.13 2.13 0 1 0 -4.26 0z" fill="black"></path><path d="M533.37 59.5 a2.13 2.13 0 1 0 4.26 0 a2.13 2.13 0 1 0 -4.26 0zM567.37 42.5 a2.13 2.13 0 1 0 4.26 0 a2.13 2.13 0 1 0 -4.26 0zM516.37 42.5 a2.13 2.13 0 1 0 4.26 0 a2.13 2.13 0 1 0 -4.26 0zM159.37 93.5 a2.13 2.13 0 1 0 4.26 0 a2.13 2.13 0 1 0 -4.26 0zM40.37 110.5 a2.13 2.13 0 1 0 4.26 0 a2.13 2.13 0 1 0 -4.26 0zM329.37 42.5 a2.13 2.13 0 1 0 4.26 0 a2.13 2.13 0 1 0 -4.26 0zM108.37 110.5 a2.13 2.13 0 1 0 4.26 0 a2.13 2.13 0 1 0 -4.26 0zM261.37 59.5 a2.13 2.13 0 1 0 4.26 0 a2.13 2.13 0 1 0 -4.26 0zM431.37 42.5 a2.13 2.13 0 1 0 4.26 0 a2.13 2.13 0 1 0 -4.26 0z" fill="black"></path></mask></defs></svg>