<svg xmlns="http://www.w3.org/2000/svg" version="1.1" xmlns:xlink="http://www.w3.org/1999/xlink" xmlns:svgjs="http://svgjs.dev/svgjs" width="1440" height="560" preserveAspectRatio="none" viewBox="0 0 1440 560"><g mask="url(&quot;#SvgjsMask1218&quot;)" fill="none"><rect width="1440" height="560" x="0" y="0" fill="url(&quot;#SvgjsLinearGradient1219&quot;)"></rect><path d="M-108.12 380.35L-108.12 380.35" stroke="rgba(58, 101, 19, 1)" stroke-width="1.5"></path><path d="M-108.12 380.35L-62.89 543.63" stroke="rgba(58, 101, 19, 1)" stroke-width="1.5"></path><path d="M-108.12 380.35L94.98 355.21" stroke="rgba(58, 101, 19, 1)" stroke-width="1.5"></path><path d="M-108.12 380.35L73.6 501.72" stroke="rgba(58, 101, 19, 1)" stroke-width="1.5"></path><path d="M-108.12 380.35L-60.39 640.04" stroke="rgba(58, 101, 19, 1)" stroke-width="1.5"></path><path d="M-108.12 380.35L219.47 390.31" stroke="rgba(58, 101, 19, 1)" stroke-width="1.5"></path><path d="M-108.12 380.35L256.35 643.27" stroke="rgba(58, 101, 19, 1)" stroke-width="1.5"></path><path d="M-62.89 543.63L-62.89 543.63" stroke="rgba(58, 101, 19, 1)" stroke-width="1.5"></path><path d="M-62.89 543.63L-60.39 640.04" stroke="rgba(58, 101, 19, 1)" stroke-width="1.5"></path><path d="M-62.89 543.63L73.6 501.72" stroke="rgba(58, 101, 19, 1)" stroke-width="1.5"></path><path d="M-62.89 543.63L94.98 355.21" stroke="rgba(58, 101, 19, 1)" stroke-width="1.5"></path><path d="M-62.89 543.63L219.47 390.31" stroke="rgba(58, 101, 19, 1)" stroke-width="1.5"></path><path d="M-60.39 640.04L-60.39 640.04" stroke="rgba(58, 101, 19, 1)" stroke-width="1.5"></path><path d="M-60.39 640.04L73.6 501.72" stroke="rgba(58, 101, 19, 1)" stroke-width="1.5"></path><path d="M94.98 355.21L94.98 355.21" stroke="rgba(58, 101, 19, 1)" stroke-width="1.5"></path><path d="M94.98 355.21L219.47 390.31" stroke="rgba(58, 101, 19, 1)" stroke-width="1.5"></path><path d="M94.98 355.21L73.6 501.72" stroke="rgba(58, 101, 19, 1)" stroke-width="1.5"></path><path d="M94.98 355.21L365.66 341.65" stroke="rgba(58, 101, 19, 1)" stroke-width="1.5"></path><path d="M73.6 501.72L73.6 501.72" stroke="rgba(58, 101, 19, 1)" stroke-width="1.5"></path><path d="M73.6 501.72L219.47 390.31" stroke="rgba(58, 101, 19, 1)" stroke-width="1.5"></path><path d="M219.47 390.31L219.47 390.31" stroke="rgba(58, 101, 19, 1)" stroke-width="1.5"></path><path d="M219.47 390.31L365.66 341.65" stroke="rgba(58, 101, 19, 1)" stroke-width="1.5"></path><path d="M219.47 390.31L382.34 514.64" stroke="rgba(58, 101, 19, 1)" stroke-width="1.5"></path><path d="M219.47 390.31L256.35 643.27" stroke="rgba(58, 101, 19, 1)" stroke-width="1.5"></path><path d="M219.47 390.31L497.2 392.86" stroke="rgba(58, 101, 19, 1)" stroke-width="1.5"></path><path d="M256.35 643.27L256.35 643.27" stroke="rgba(58, 101, 19, 1)" stroke-width="1.5"></path><path d="M256.35 643.27L348.84 660.79" stroke="rgba(58, 101, 19, 1)" stroke-width="1.5"></path><path d="M256.35 643.27L382.34 514.64" stroke="rgba(58, 101, 19, 1)" stroke-width="1.5"></path><path d="M256.35 643.27L73.6 501.72" stroke="rgba(58, 101, 19, 1)" stroke-width="1.5"></path><path d="M256.35 643.27L527.68 531.58" stroke="rgba(58, 101, 19, 1)" stroke-width="1.5"></path><path d="M256.35 643.27L550.72 700.93" stroke="rgba(58, 101, 19, 1)" stroke-width="1.5"></path><path d="M365.66 341.65L365.66 341.65" stroke="rgba(58, 101, 19, 1)" stroke-width="1.5"></path><path d="M365.66 341.65L497.2 392.86" stroke="rgba(58, 101, 19, 1)" stroke-width="1.5"></path><path d="M365.66 341.65L382.34 514.64" stroke="rgba(58, 101, 19, 1)" stroke-width="1.5"></path><path d="M365.66 341.65L527.68 531.58" stroke="rgba(58, 101, 19, 1)" stroke-width="1.5"></path><path d="M382.34 514.64L382.34 514.64" stroke="rgba(58, 101, 19, 1)" stroke-width="1.5"></path><path d="M382.34 514.64L527.68 531.58" stroke="rgba(58, 101, 19, 1)" stroke-width="1.5"></path><path d="M382.34 514.64L348.84 660.79" stroke="rgba(58, 101, 19, 1)" stroke-width="1.5"></path><path d="M382.34 514.64L497.2 392.86" stroke="rgba(58, 101, 19, 1)" stroke-width="1.5"></path><path d="M348.84 660.79L348.84 660.79" stroke="rgba(58, 101, 19, 1)" stroke-width="1.5"></path><path d="M348.84 660.79L550.72 700.93" stroke="rgba(58, 101, 19, 1)" stroke-width="1.5"></path><path d="M348.84 660.79L527.68 531.58" stroke="rgba(58, 101, 19, 1)" stroke-width="1.5"></path><path d="M348.84 660.79L219.47 390.31" stroke="rgba(58, 101, 19, 1)" stroke-width="1.5"></path><path d="M497.2 392.86L497.2 392.86" stroke="rgba(58, 101, 19, 1)" stroke-width="1.5"></path><path d="M527.68 531.58L527.68 531.58" stroke="rgba(58, 101, 19, 1)" stroke-width="1.5"></path><path d="M527.68 531.58L660.59 550.98" stroke="rgba(58, 101, 19, 1)" stroke-width="1.5"></path><path d="M527.68 531.58L497.2 392.86" stroke="rgba(58, 101, 19, 1)" stroke-width="1.5"></path><path d="M527.68 531.58L550.72 700.93" stroke="rgba(58, 101, 19, 1)" stroke-width="1.5"></path><path d="M527.68 531.58L658.82 367.11" stroke="rgba(58, 101, 19, 1)" stroke-width="1.5"></path><path d="M550.72 700.93L550.72 700.93" stroke="rgba(58, 101, 19, 1)" stroke-width="1.5"></path><path d="M550.72 700.93L670.57 694.12" stroke="rgba(58, 101, 19, 1)" stroke-width="1.5"></path><path d="M550.72 700.93L660.59 550.98" stroke="rgba(58, 101, 19, 1)" stroke-width="1.5"></path><path d="M550.72 700.93L382.34 514.64" stroke="rgba(58, 101, 19, 1)" stroke-width="1.5"></path><path d="M682.7 209.77L682.7 209.77" stroke="rgba(58, 101, 19, 1)" stroke-width="1.5"></path><path d="M682.7 209.77L658.82 367.11" stroke="rgba(58, 101, 19, 1)" stroke-width="1.5"></path><path d="M682.7 209.77L847.31 257.51" stroke="rgba(58, 101, 19, 1)" stroke-width="1.5"></path><path d="M682.7 209.77L810.58 358.17" stroke="rgba(58, 101, 19, 1)" stroke-width="1.5"></path><path d="M682.7 209.77L497.2 392.86" stroke="rgba(58, 101, 19, 1)" stroke-width="1.5"></path><path d="M682.7 209.77L959.47 244.54" stroke="rgba(58, 101, 19, 1)" stroke-width="1.5"></path><path d="M658.82 367.11L658.82 367.11" stroke="rgba(58, 101, 19, 1)" stroke-width="1.5"></path><path d="M658.82 367.11L810.58 358.17" stroke="rgba(58, 101, 19, 1)" stroke-width="1.5"></path><path d="M660.59 550.98L660.59 550.98" stroke="rgba(58, 101, 19, 1)" stroke-width="1.5"></path><path d="M660.59 550.98L670.57 694.12" stroke="rgba(58, 101, 19, 1)" stroke-width="1.5"></path><path d="M660.59 550.98L658.82 367.11" stroke="rgba(58, 101, 19, 1)" stroke-width="1.5"></path><path d="M660.59 550.98L497.2 392.86" stroke="rgba(58, 101, 19, 1)" stroke-width="1.5"></path><path d="M660.59 550.98L810.58 358.17" stroke="rgba(58, 101, 19, 1)" stroke-width="1.5"></path><path d="M670.57 694.12L670.57 694.12" stroke="rgba(58, 101, 19, 1)" stroke-width="1.5"></path><path d="M847.31 257.51L847.31 257.51" stroke="rgba(58, 101, 19, 1)" stroke-width="1.5"></path><path d="M847.31 257.51L810.58 358.17" stroke="rgba(58, 101, 19, 1)" stroke-width="1.5"></path><path d="M847.31 257.51L959.47 244.54" stroke="rgba(58, 101, 19, 1)" stroke-width="1.5"></path><path d="M847.31 257.51L970.78 344.88" stroke="rgba(58, 101, 19, 1)" stroke-width="1.5"></path><path d="M810.58 358.17L810.58 358.17" stroke="rgba(58, 101, 19, 1)" stroke-width="1.5"></path><path d="M810.58 358.17L970.78 344.88" stroke="rgba(58, 101, 19, 1)" stroke-width="1.5"></path><path d="M810.58 358.17L959.47 244.54" stroke="rgba(58, 101, 19, 1)" stroke-width="1.5"></path><path d="M810.58 358.17L979.63 519.21" stroke="rgba(58, 101, 19, 1)" stroke-width="1.5"></path><path d="M1012.31 -102.57L1012.31 -102.57" stroke="rgba(58, 101, 19, 1)" stroke-width="1.5"></path><path d="M1012.31 -102.57L1118.39 -98.88" stroke="rgba(58, 101, 19, 1)" stroke-width="1.5"></path><path d="M1012.31 -102.57L946.41 69.06" stroke="rgba(58, 101, 19, 1)" stroke-width="1.5"></path><path d="M1012.31 -102.57L1092.15 109.54" stroke="rgba(58, 101, 19, 1)" stroke-width="1.5"></path><path d="M946.41 69.06L946.41 69.06" stroke="rgba(58, 101, 19, 1)" stroke-width="1.5"></path><path d="M946.41 69.06L1092.15 109.54" stroke="rgba(58, 101, 19, 1)" stroke-width="1.5"></path><path d="M959.47 244.54L959.47 244.54" stroke="rgba(58, 101, 19, 1)" stroke-width="1.5"></path><path d="M959.47 244.54L970.78 344.88" stroke="rgba(58, 101, 19, 1)" stroke-width="1.5"></path><path d="M959.47 244.54L946.41 69.06" stroke="rgba(58, 101, 19, 1)" stroke-width="1.5"></path><path d="M959.47 244.54L1092.15 109.54" stroke="rgba(58, 101, 19, 1)" stroke-width="1.5"></path><path d="M970.78 344.88L970.78 344.88" stroke="rgba(58, 101, 19, 1)" stroke-width="1.5"></path><path d="M979.63 519.21L979.63 519.21" stroke="rgba(58, 101, 19, 1)" stroke-width="1.5"></path><path d="M979.63 519.21L1142.67 500.71" stroke="rgba(58, 101, 19, 1)" stroke-width="1.5"></path><path d="M967.88 707.57L967.88 707.57" stroke="rgba(58, 101, 19, 1)" stroke-width="1.5"></path><path d="M967.88 707.57L1142.23 696.32" stroke="rgba(58, 101, 19, 1)" stroke-width="1.5"></path><path d="M967.88 707.57L979.63 519.21" stroke="rgba(58, 101, 19, 1)" stroke-width="1.5"></path><path d="M967.88 707.57L1142.67 500.71" stroke="rgba(58, 101, 19, 1)" stroke-width="1.5"></path><path d="M1118.39 -98.88L1118.39 -98.88" stroke="rgba(58, 101, 19, 1)" stroke-width="1.5"></path><path d="M1118.39 -98.88L1290.79 -92.14" stroke="rgba(58, 101, 19, 1)" stroke-width="1.5"></path><path d="M1118.39 -98.88L1092.15 109.54" stroke="rgba(58, 101, 19, 1)" stroke-width="1.5"></path><path d="M1118.39 -98.88L946.41 69.06" stroke="rgba(58, 101, 19, 1)" stroke-width="1.5"></path><path d="M1118.39 -98.88L1309.9 88.53" stroke="rgba(58, 101, 19, 1)" stroke-width="1.5"></path><path d="M1118.39 -98.88L1156.02 235.54" stroke="rgba(58, 101, 19, 1)" stroke-width="1.5"></path><path d="M1092.15 109.54L1092.15 109.54" stroke="rgba(58, 101, 19, 1)" stroke-width="1.5"></path><path d="M1092.15 109.54L1156.02 235.54" stroke="rgba(58, 101, 19, 1)" stroke-width="1.5"></path><path d="M1156.02 235.54L1156.02 235.54" stroke="rgba(58, 101, 19, 1)" stroke-width="1.5"></path><path d="M1156.02 235.54L1260.66 243.77" stroke="rgba(58, 101, 19, 1)" stroke-width="1.5"></path><path d="M1156.02 235.54L1269.96 357.81" stroke="rgba(58, 101, 19, 1)" stroke-width="1.5"></path><path d="M1156.02 235.54L1118.08 409.75" stroke="rgba(58, 101, 19, 1)" stroke-width="1.5"></path><path d="M1156.02 235.54L959.47 244.54" stroke="rgba(58, 101, 19, 1)" stroke-width="1.5"></path><path d="M1156.02 235.54L1309.9 88.53" stroke="rgba(58, 101, 19, 1)" stroke-width="1.5"></path><path d="M1118.08 409.75L1118.08 409.75" stroke="rgba(58, 101, 19, 1)" stroke-width="1.5"></path><path d="M1118.08 409.75L1142.67 500.71" stroke="rgba(58, 101, 19, 1)" stroke-width="1.5"></path><path d="M1118.08 409.75L1269.96 357.81" stroke="rgba(58, 101, 19, 1)" stroke-width="1.5"></path><path d="M1118.08 409.75L970.78 344.88" stroke="rgba(58, 101, 19, 1)" stroke-width="1.5"></path><path d="M1118.08 409.75L979.63 519.21" stroke="rgba(58, 101, 19, 1)" stroke-width="1.5"></path><path d="M1142.67 500.71L1142.67 500.71" stroke="rgba(58, 101, 19, 1)" stroke-width="1.5"></path><path d="M1142.67 500.71L1274.33 514.58" stroke="rgba(58, 101, 19, 1)" stroke-width="1.5"></path><path d="M1142.23 696.32L1142.23 696.32" stroke="rgba(58, 101, 19, 1)" stroke-width="1.5"></path><path d="M1142.23 696.32L1262.15 694.47" stroke="rgba(58, 101, 19, 1)" stroke-width="1.5"></path><path d="M1142.23 696.32L1142.67 500.71" stroke="rgba(58, 101, 19, 1)" stroke-width="1.5"></path><path d="M1290.79 -92.14L1290.79 -92.14" stroke="rgba(58, 101, 19, 1)" stroke-width="1.5"></path><path d="M1290.79 -92.14L1309.9 88.53" stroke="rgba(58, 101, 19, 1)" stroke-width="1.5"></path><path d="M1309.9 88.53L1309.9 88.53" stroke="rgba(58, 101, 19, 1)" stroke-width="1.5"></path><path d="M1309.9 88.53L1441.82 48.61" stroke="rgba(58, 101, 19, 1)" stroke-width="1.5"></path><path d="M1309.9 88.53L1260.66 243.77" stroke="rgba(58, 101, 19, 1)" stroke-width="1.5"></path><path d="M1260.66 243.77L1260.66 243.77" stroke="rgba(58, 101, 19, 1)" stroke-width="1.5"></path><path d="M1260.66 243.77L1269.96 357.81" stroke="rgba(58, 101, 19, 1)" stroke-width="1.5"></path><path d="M1269.96 357.81L1269.96 357.81" stroke="rgba(58, 101, 19, 1)" stroke-width="1.5"></path><path d="M1269.96 357.81L1274.33 514.58" stroke="rgba(58, 101, 19, 1)" stroke-width="1.5"></path><path d="M1269.96 357.81L1423.59 398.69" stroke="rgba(58, 101, 19, 1)" stroke-width="1.5"></path><path d="M1274.33 514.58L1274.33 514.58" stroke="rgba(58, 101, 19, 1)" stroke-width="1.5"></path><path d="M1274.33 514.58L1411.2 514.43" stroke="rgba(58, 101, 19, 1)" stroke-width="1.5"></path><path d="M1262.15 694.47L1262.15 694.47" stroke="rgba(58, 101, 19, 1)" stroke-width="1.5"></path><path d="M1262.15 694.47L1411.08 655.99" stroke="rgba(58, 101, 19, 1)" stroke-width="1.5"></path><path d="M1262.15 694.47L1274.33 514.58" stroke="rgba(58, 101, 19, 1)" stroke-width="1.5"></path><path d="M1441.82 48.61L1441.82 48.61" stroke="rgba(58, 101, 19, 1)" stroke-width="1.5"></path><path d="M1441.82 48.61L1591.8 56.69" stroke="rgba(58, 101, 19, 1)" stroke-width="1.5"></path><path d="M1441.82 48.61L1586.4 -83.51" stroke="rgba(58, 101, 19, 1)" stroke-width="1.5"></path><path d="M1405.48 261.54L1405.48 261.54" stroke="rgba(58, 101, 19, 1)" stroke-width="1.5"></path><path d="M1405.48 261.54L1423.59 398.69" stroke="rgba(58, 101, 19, 1)" stroke-width="1.5"></path><path d="M1405.48 261.54L1260.66 243.77" stroke="rgba(58, 101, 19, 1)" stroke-width="1.5"></path><path d="M1423.59 398.69L1423.59 398.69" stroke="rgba(58, 101, 19, 1)" stroke-width="1.5"></path><path d="M1423.59 398.69L1411.2 514.43" stroke="rgba(58, 101, 19, 1)" stroke-width="1.5"></path><path d="M1423.59 398.69L1552.32 364.28" stroke="rgba(58, 101, 19, 1)" stroke-width="1.5"></path><path d="M1423.59 398.69L1274.33 514.58" stroke="rgba(58, 101, 19, 1)" stroke-width="1.5"></path><path d="M1411.2 514.43L1411.2 514.43" stroke="rgba(58, 101, 19, 1)" stroke-width="1.5"></path><path d="M1411.2 514.43L1411.08 655.99" stroke="rgba(58, 101, 19, 1)" stroke-width="1.5"></path><path d="M1411.2 514.43L1583.98 561.41" stroke="rgba(58, 101, 19, 1)" stroke-width="1.5"></path><path d="M1411.2 514.43L1554.41 641.33" stroke="rgba(58, 101, 19, 1)" stroke-width="1.5"></path><path d="M1411.08 655.99L1411.08 655.99" stroke="rgba(58, 101, 19, 1)" stroke-width="1.5"></path><path d="M1411.08 655.99L1554.41 641.33" stroke="rgba(58, 101, 19, 1)" stroke-width="1.5"></path><path d="M1586.4 -83.51L1586.4 -83.51" stroke="rgba(58, 101, 19, 1)" stroke-width="1.5"></path><path d="M1586.4 -83.51L1591.8 56.69" stroke="rgba(58, 101, 19, 1)" stroke-width="1.5"></path><path d="M1586.4 -83.51L1290.79 -92.14" stroke="rgba(58, 101, 19, 1)" stroke-width="1.5"></path><path d="M1586.4 -83.51L1309.9 88.53" stroke="rgba(58, 101, 19, 1)" stroke-width="1.5"></path><path d="M1591.8 56.69L1591.8 56.69" stroke="rgba(58, 101, 19, 1)" stroke-width="1.5"></path><path d="M1591.8 56.69L1571.35 251.32" stroke="rgba(58, 101, 19, 1)" stroke-width="1.5"></path><path d="M1591.8 56.69L1405.48 261.54" stroke="rgba(58, 101, 19, 1)" stroke-width="1.5"></path><path d="M1591.8 56.69L1309.9 88.53" stroke="rgba(58, 101, 19, 1)" stroke-width="1.5"></path><path d="M1591.8 56.69L1552.32 364.28" stroke="rgba(58, 101, 19, 1)" stroke-width="1.5"></path><path d="M1571.35 251.32L1571.35 251.32" stroke="rgba(58, 101, 19, 1)" stroke-width="1.5"></path><path d="M1571.35 251.32L1552.32 364.28" stroke="rgba(58, 101, 19, 1)" stroke-width="1.5"></path><path d="M1571.35 251.32L1405.48 261.54" stroke="rgba(58, 101, 19, 1)" stroke-width="1.5"></path><path d="M1552.32 364.28L1552.32 364.28" stroke="rgba(58, 101, 19, 1)" stroke-width="1.5"></path><path d="M1552.32 364.28L1405.48 261.54" stroke="rgba(58, 101, 19, 1)" stroke-width="1.5"></path><path d="M1583.98 561.41L1583.98 561.41" stroke="rgba(58, 101, 19, 1)" stroke-width="1.5"></path><path d="M1583.98 561.41L1554.41 641.33" stroke="rgba(58, 101, 19, 1)" stroke-width="1.5"></path><path d="M1583.98 561.41L1411.08 655.99" stroke="rgba(58, 101, 19, 1)" stroke-width="1.5"></path><path d="M1583.98 561.41L1552.32 364.28" stroke="rgba(58, 101, 19, 1)" stroke-width="1.5"></path><path d="M1554.41 641.33L1554.41 641.33" stroke="rgba(58, 101, 19, 1)" stroke-width="1.5"></path><path d="M1554.41 641.33L1423.59 398.69" stroke="rgba(58, 101, 19, 1)" stroke-width="1.5"></path><path d="M1554.41 641.33L1552.32 364.28" stroke="rgba(58, 101, 19, 1)" stroke-width="1.5"></path><circle r="5" cx="-108.12" cy="380.35" fill="rgba(58, 101, 19, 1)"></circle><circle r="5" cx="-62.89" cy="543.63" fill="rgba(58, 101, 19, 1)"></circle><circle r="5" cx="-60.39" cy="640.04" fill="rgba(58, 101, 19, 1)"></circle><circle r="5" cx="94.98" cy="355.21" fill="rgba(58, 101, 19, 1)"></circle><circle r="5" cx="73.6" cy="501.72" fill="rgba(58, 101, 19, 1)"></circle><circle r="5" cx="219.47" cy="390.31" fill="rgba(58, 101, 19, 1)"></circle><circle r="5" cx="256.35" cy="643.27" fill="rgba(58, 101, 19, 1)"></circle><circle r="5" cx="365.66" cy="341.65" fill="rgba(58, 101, 19, 1)"></circle><circle r="5" cx="382.34" cy="514.64" fill="rgba(58, 101, 19, 1)"></circle><circle r="5" cx="348.84" cy="660.79" fill="rgba(58, 101, 19, 1)"></circle><circle r="5" cx="497.2" cy="392.86" fill="rgba(58, 101, 19, 1)"></circle><circle r="5" cx="527.68" cy="531.58" fill="rgba(58, 101, 19, 1)"></circle><circle r="5" cx="550.72" cy="700.93" fill="rgba(58, 101, 19, 1)"></circle><circle r="5" cx="682.7" cy="209.77" fill="rgba(58, 101, 19, 1)"></circle><circle r="5" cx="658.82" cy="367.11" fill="rgba(58, 101, 19, 1)"></circle><circle r="5" cx="660.59" cy="550.98" fill="rgba(58, 101, 19, 1)"></circle><circle r="5" cx="670.57" cy="694.12" fill="rgba(58, 101, 19, 1)"></circle><circle r="5" cx="847.31" cy="257.51" fill="rgba(58, 101, 19, 1)"></circle><circle r="5" cx="810.58" cy="358.17" fill="rgba(58, 101, 19, 1)"></circle><circle r="5" cx="1012.31" cy="-102.57" fill="rgba(58, 101, 19, 1)"></circle><circle r="5" cx="946.41" cy="69.06" fill="rgba(58, 101, 19, 1)"></circle><circle r="5" cx="959.47" cy="244.54" fill="rgba(58, 101, 19, 1)"></circle><circle r="5" cx="970.78" cy="344.88" fill="rgba(58, 101, 19, 1)"></circle><circle r="5" cx="979.63" cy="519.21" fill="rgba(58, 101, 19, 1)"></circle><circle r="5" cx="967.88" cy="707.57" fill="rgba(58, 101, 19, 1)"></circle><circle r="5" cx="1118.39" cy="-98.88" fill="rgba(58, 101, 19, 1)"></circle><circle r="5" cx="1092.15" cy="109.54" fill="rgba(58, 101, 19, 1)"></circle><circle r="5" cx="1156.02" cy="235.54" fill="rgba(58, 101, 19, 1)"></circle><circle r="5" cx="1118.08" cy="409.75" fill="rgba(58, 101, 19, 1)"></circle><circle r="5" cx="1142.67" cy="500.71" fill="rgba(58, 101, 19, 1)"></circle><circle r="5" cx="1142.23" cy="696.32" fill="rgba(58, 101, 19, 1)"></circle><circle r="5" cx="1290.79" cy="-92.14" fill="rgba(58, 101, 19, 1)"></circle><circle r="5" cx="1309.9" cy="88.53" fill="rgba(58, 101, 19, 1)"></circle><circle r="5" cx="1260.66" cy="243.77" fill="rgba(58, 101, 19, 1)"></circle><circle r="5" cx="1269.96" cy="357.81" fill="rgba(58, 101, 19, 1)"></circle><circle r="5" cx="1274.33" cy="514.58" fill="rgba(58, 101, 19, 1)"></circle><circle r="5" cx="1262.15" cy="694.47" fill="rgba(58, 101, 19, 1)"></circle><circle r="5" cx="1441.82" cy="48.61" fill="rgba(58, 101, 19, 1)"></circle><circle r="5" cx="1405.48" cy="261.54" fill="rgba(58, 101, 19, 1)"></circle><circle r="5" cx="1423.59" cy="398.69" fill="rgba(58, 101, 19, 1)"></circle><circle r="5" cx="1411.2" cy="514.43" fill="rgba(58, 101, 19, 1)"></circle><circle r="5" cx="1411.08" cy="655.99" fill="rgba(58, 101, 19, 1)"></circle><circle r="5" cx="1586.4" cy="-83.51" fill="rgba(58, 101, 19, 1)"></circle><circle r="5" cx="1591.8" cy="56.69" fill="rgba(58, 101, 19, 1)"></circle><circle r="5" cx="1571.35" cy="251.32" fill="rgba(58, 101, 19, 1)"></circle><circle r="5" cx="1552.32" cy="364.28" fill="rgba(58, 101, 19, 1)"></circle><circle r="5" cx="1583.98" cy="561.41" fill="rgba(58, 101, 19, 1)"></circle><circle r="5" cx="1554.41" cy="641.33" fill="rgba(58, 101, 19, 1)"></circle><path d="M-85.42 668.44L-85.42 668.44" stroke="hsl(240, 100%, 100%)" stroke-width="1.5"></path><path d="M-85.42 668.44L-69.47 540.1" stroke="hsl(240, 100%, 100%)" stroke-width="1.5"></path><path d="M-85.42 668.44L45.34 641.95" stroke="hsl(240, 100%, 100%)" stroke-width="1.5"></path><path d="M-85.42 668.44L55.32 529.69" stroke="hsl(240, 100%, 100%)" stroke-width="1.5"></path><path d="M45.34 641.95L45.34 641.95" stroke="hsl(240, 100%, 100%)" stroke-width="1.5"></path><path d="M45.34 641.95L55.32 529.69" stroke="hsl(240, 100%, 100%)" stroke-width="1.5"></path><path d="M671.55 385.83L671.55 385.83" stroke="hsl(240, 100%, 100%)" stroke-width="1.5"></path><path d="M671.55 385.83L681.88 555.51" stroke="hsl(240, 100%, 100%)" stroke-width="1.5"></path><path d="M671.55 385.83L513.29 497.95" stroke="hsl(240, 100%, 100%)" stroke-width="1.5"></path><path d="M671.55 385.83L810.89 552.03" stroke="hsl(240, 100%, 100%)" stroke-width="1.5"></path><path d="M671.55 385.83L688.06 652.55" stroke="hsl(240, 100%, 100%)" stroke-width="1.5"></path><path d="M671.55 385.83L561.38 644.48" stroke="hsl(240, 100%, 100%)" stroke-width="1.5"></path><path d="M671.55 385.83L810.44 675.96" stroke="hsl(240, 100%, 100%)" stroke-width="1.5"></path><path d="M681.88 555.51L681.88 555.51" stroke="hsl(240, 100%, 100%)" stroke-width="1.5"></path><path d="M681.88 555.51L688.06 652.55" stroke="hsl(240, 100%, 100%)" stroke-width="1.5"></path><path d="M681.88 555.51L810.89 552.03" stroke="hsl(240, 100%, 100%)" stroke-width="1.5"></path><path d="M681.88 555.51L561.38 644.48" stroke="hsl(240, 100%, 100%)" stroke-width="1.5"></path><path d="M810.44 675.96L810.44 675.96" stroke="hsl(240, 100%, 100%)" stroke-width="1.5"></path><path d="M810.44 675.96L810.89 552.03" stroke="hsl(240, 100%, 100%)" stroke-width="1.5"></path><path d="M810.44 675.96L688.06 652.55" stroke="hsl(240, 100%, 100%)" stroke-width="1.5"></path><path d="M810.44 675.96L947.82 648.23" stroke="hsl(240, 100%, 100%)" stroke-width="1.5"></path><path d="M1139.78 227.74L1139.78 227.74" stroke="hsl(240, 100%, 100%)" stroke-width="1.5"></path><path d="M1139.78 227.74L1129.47 366.02" stroke="hsl(240, 100%, 100%)" stroke-width="1.5"></path><path d="M1139.78 227.74L985.22 262.27" stroke="hsl(240, 100%, 100%)" stroke-width="1.5"></path><path d="M1139.78 227.74L1010.26 384.36" stroke="hsl(240, 100%, 100%)" stroke-width="1.5"></path><path d="M1268.18 555.98L1268.18 555.98" stroke="hsl(240, 100%, 100%)" stroke-width="1.5"></path><path d="M1268.18 555.98L1296.54 645.3" stroke="hsl(240, 100%, 100%)" stroke-width="1.5"></path><path d="M1268.18 555.98L1157.1 646.33" stroke="hsl(240, 100%, 100%)" stroke-width="1.5"></path><path d="M1268.18 555.98L1436.12 557.52" stroke="hsl(240, 100%, 100%)" stroke-width="1.5"></path><path d="M1433.24 706.09L1433.24 706.09" stroke="hsl(240, 100%, 100%)" stroke-width="1.5"></path><path d="M1433.24 706.09L1436.12 557.52" stroke="hsl(240, 100%, 100%)" stroke-width="1.5"></path><path d="M1433.24 706.09L1296.54 645.3" stroke="hsl(240, 100%, 100%)" stroke-width="1.5"></path><path d="M1433.24 706.09L1587.67 670.32" stroke="hsl(240, 100%, 100%)" stroke-width="1.5"></path><path d="M1433.24 706.09L1268.18 555.98" stroke="hsl(240, 100%, 100%)" stroke-width="1.5"></path><path d="M1433.24 706.09L1593.55 503.13" stroke="hsl(240, 100%, 100%)" stroke-width="1.5"></path><path d="M-69.47 540.1L-69.47 540.1" stroke="hsl(240, 100%, 100%)" stroke-width="1.5"></path><path d="M-69.47 540.1L55.32 529.69" stroke="hsl(240, 100%, 100%)" stroke-width="1.5"></path><path d="M-69.47 540.1L45.34 641.95" stroke="hsl(240, 100%, 100%)" stroke-width="1.5"></path><path d="M-69.47 540.1L200.59 561.05" stroke="hsl(240, 100%, 100%)" stroke-width="1.5"></path><path d="M-69.47 540.1L243.27 701.24" stroke="hsl(240, 100%, 100%)" stroke-width="1.5"></path><path d="M-69.47 540.1L394.07 706.07" stroke="hsl(240, 100%, 100%)" stroke-width="1.5"></path><path d="M55.32 529.69L55.32 529.69" stroke="hsl(240, 100%, 100%)" stroke-width="1.5"></path><path d="M55.32 529.69L200.59 561.05" stroke="hsl(240, 100%, 100%)" stroke-width="1.5"></path><path d="M55.32 529.69L243.27 701.24" stroke="hsl(240, 100%, 100%)" stroke-width="1.5"></path><path d="M200.59 561.05L200.59 561.05" stroke="hsl(240, 100%, 100%)" stroke-width="1.5"></path><path d="M200.59 561.05L243.27 701.24" stroke="hsl(240, 100%, 100%)" stroke-width="1.5"></path><path d="M200.59 561.05L45.34 641.95" stroke="hsl(240, 100%, 100%)" stroke-width="1.5"></path><path d="M200.59 561.05L394.07 706.07" stroke="hsl(240, 100%, 100%)" stroke-width="1.5"></path><path d="M200.59 561.05L-85.42 668.44" stroke="hsl(240, 100%, 100%)" stroke-width="1.5"></path><path d="M243.27 701.24L243.27 701.24" stroke="hsl(240, 100%, 100%)" stroke-width="1.5"></path><path d="M243.27 701.24L394.07 706.07" stroke="hsl(240, 100%, 100%)" stroke-width="1.5"></path><path d="M243.27 701.24L45.34 641.95" stroke="hsl(240, 100%, 100%)" stroke-width="1.5"></path><path d="M394.07 706.07L394.07 706.07" stroke="hsl(240, 100%, 100%)" stroke-width="1.5"></path><path d="M394.07 706.07L561.38 644.48" stroke="hsl(240, 100%, 100%)" stroke-width="1.5"></path><path d="M394.07 706.07L513.29 497.95" stroke="hsl(240, 100%, 100%)" stroke-width="1.5"></path><path d="M513.29 497.95L513.29 497.95" stroke="hsl(240, 100%, 100%)" stroke-width="1.5"></path><path d="M513.29 497.95L561.38 644.48" stroke="hsl(240, 100%, 100%)" stroke-width="1.5"></path><path d="M561.38 644.48L561.38 644.48" stroke="hsl(240, 100%, 100%)" stroke-width="1.5"></path><path d="M561.38 644.48L688.06 652.55" stroke="hsl(240, 100%, 100%)" stroke-width="1.5"></path><path d="M561.38 644.48L810.44 675.96" stroke="hsl(240, 100%, 100%)" stroke-width="1.5"></path><path d="M561.38 644.48L810.89 552.03" stroke="hsl(240, 100%, 100%)" stroke-width="1.5"></path><path d="M688.06 652.55L688.06 652.55" stroke="hsl(240, 100%, 100%)" stroke-width="1.5"></path><path d="M688.06 652.55L810.89 552.03" stroke="hsl(240, 100%, 100%)" stroke-width="1.5"></path><path d="M688.06 652.55L513.29 497.95" stroke="hsl(240, 100%, 100%)" stroke-width="1.5"></path><path d="M688.06 652.55L947.82 648.23" stroke="hsl(240, 100%, 100%)" stroke-width="1.5"></path><path d="M810.89 552.03L810.89 552.03" stroke="hsl(240, 100%, 100%)" stroke-width="1.5"></path><path d="M985.22 262.27L985.22 262.27" stroke="hsl(240, 100%, 100%)" stroke-width="1.5"></path><path d="M985.22 262.27L1010.26 384.36" stroke="hsl(240, 100%, 100%)" stroke-width="1.5"></path><path d="M1010.26 384.36L1010.26 384.36" stroke="hsl(240, 100%, 100%)" stroke-width="1.5"></path><path d="M1010.26 384.36L1006.41 498.3" stroke="hsl(240, 100%, 100%)" stroke-width="1.5"></path><path d="M1010.26 384.36L1129.47 366.02" stroke="hsl(240, 100%, 100%)" stroke-width="1.5"></path><path d="M1010.26 384.36L810.89 552.03" stroke="hsl(240, 100%, 100%)" stroke-width="1.5"></path><path d="M1010.26 384.36L947.82 648.23" stroke="hsl(240, 100%, 100%)" stroke-width="1.5"></path><path d="M1006.41 498.3L1006.41 498.3" stroke="hsl(240, 100%, 100%)" stroke-width="1.5"></path><path d="M1006.41 498.3L947.82 648.23" stroke="hsl(240, 100%, 100%)" stroke-width="1.5"></path><path d="M947.82 648.23L947.82 648.23" stroke="hsl(240, 100%, 100%)" stroke-width="1.5"></path><path d="M947.82 648.23L810.89 552.03" stroke="hsl(240, 100%, 100%)" stroke-width="1.5"></path><path d="M1129.47 366.02L1129.47 366.02" stroke="hsl(240, 100%, 100%)" stroke-width="1.5"></path><path d="M1157.1 646.33L1157.1 646.33" stroke="hsl(240, 100%, 100%)" stroke-width="1.5"></path><path d="M1157.1 646.33L1296.54 645.3" stroke="hsl(240, 100%, 100%)" stroke-width="1.5"></path><path d="M1157.1 646.33L947.82 648.23" stroke="hsl(240, 100%, 100%)" stroke-width="1.5"></path><path d="M1157.1 646.33L1006.41 498.3" stroke="hsl(240, 100%, 100%)" stroke-width="1.5"></path><path d="M1157.1 646.33L1129.47 366.02" stroke="hsl(240, 100%, 100%)" stroke-width="1.5"></path><path d="M1278.94 -64.4L1278.94 -64.4" stroke="hsl(240, 100%, 100%)" stroke-width="1.5"></path><path d="M1278.94 -64.4L1275.55 60.9" stroke="hsl(240, 100%, 100%)" stroke-width="1.5"></path><path d="M1278.94 -64.4L1441.91 -104.28" stroke="hsl(240, 100%, 100%)" stroke-width="1.5"></path><path d="M1278.94 -64.4L1397.02 108.76" stroke="hsl(240, 100%, 100%)" stroke-width="1.5"></path><path d="M1278.94 -64.4L1551.61 45.78" stroke="hsl(240, 100%, 100%)" stroke-width="1.5"></path><path d="M1278.94 -64.4L1595.62 -49.38" stroke="hsl(240, 100%, 100%)" stroke-width="1.5"></path><path d="M1278.94 -64.4L1139.78 227.74" stroke="hsl(240, 100%, 100%)" stroke-width="1.5"></path><path d="M1275.55 60.9L1275.55 60.9" stroke="hsl(240, 100%, 100%)" stroke-width="1.5"></path><path d="M1275.55 60.9L1397.02 108.76" stroke="hsl(240, 100%, 100%)" stroke-width="1.5"></path><path d="M1275.55 60.9L1139.78 227.74" stroke="hsl(240, 100%, 100%)" stroke-width="1.5"></path><path d="M1275.55 60.9L1430.94 233.29" stroke="hsl(240, 100%, 100%)" stroke-width="1.5"></path><path d="M1275.55 60.9L1441.91 -104.28" stroke="hsl(240, 100%, 100%)" stroke-width="1.5"></path><path d="M1309.54 379.26L1309.54 379.26" stroke="hsl(240, 100%, 100%)" stroke-width="1.5"></path><path d="M1309.54 379.26L1437.98 338.99" stroke="hsl(240, 100%, 100%)" stroke-width="1.5"></path><path d="M1309.54 379.26L1129.47 366.02" stroke="hsl(240, 100%, 100%)" stroke-width="1.5"></path><path d="M1309.54 379.26L1268.18 555.98" stroke="hsl(240, 100%, 100%)" stroke-width="1.5"></path><path d="M1309.54 379.26L1430.94 233.29" stroke="hsl(240, 100%, 100%)" stroke-width="1.5"></path><path d="M1296.54 645.3L1296.54 645.3" stroke="hsl(240, 100%, 100%)" stroke-width="1.5"></path><path d="M1296.54 645.3L1436.12 557.52" stroke="hsl(240, 100%, 100%)" stroke-width="1.5"></path><path d="M1296.54 645.3L1309.54 379.26" stroke="hsl(240, 100%, 100%)" stroke-width="1.5"></path><path d="M1296.54 645.3L1587.67 670.32" stroke="hsl(240, 100%, 100%)" stroke-width="1.5"></path><path d="M1441.91 -104.28L1441.91 -104.28" stroke="hsl(240, 100%, 100%)" stroke-width="1.5"></path><path d="M1441.91 -104.28L1595.62 -49.38" stroke="hsl(240, 100%, 100%)" stroke-width="1.5"></path><path d="M1441.91 -104.28L1551.61 45.78" stroke="hsl(240, 100%, 100%)" stroke-width="1.5"></path><path d="M1397.02 108.76L1397.02 108.76" stroke="hsl(240, 100%, 100%)" stroke-width="1.5"></path><path d="M1397.02 108.76L1430.94 233.29" stroke="hsl(240, 100%, 100%)" stroke-width="1.5"></path><path d="M1397.02 108.76L1551.61 45.78" stroke="hsl(240, 100%, 100%)" stroke-width="1.5"></path><path d="M1397.02 108.76L1551.61 217.64" stroke="hsl(240, 100%, 100%)" stroke-width="1.5"></path><path d="M1397.02 108.76L1441.91 -104.28" stroke="hsl(240, 100%, 100%)" stroke-width="1.5"></path><path d="M1430.94 233.29L1430.94 233.29" stroke="hsl(240, 100%, 100%)" stroke-width="1.5"></path><path d="M1430.94 233.29L1437.98 338.99" stroke="hsl(240, 100%, 100%)" stroke-width="1.5"></path><path d="M1430.94 233.29L1551.61 217.64" stroke="hsl(240, 100%, 100%)" stroke-width="1.5"></path><path d="M1437.98 338.99L1437.98 338.99" stroke="hsl(240, 100%, 100%)" stroke-width="1.5"></path><path d="M1437.98 338.99L1578.61 374.17" stroke="hsl(240, 100%, 100%)" stroke-width="1.5"></path><path d="M1436.12 557.52L1436.12 557.52" stroke="hsl(240, 100%, 100%)" stroke-width="1.5"></path><path d="M1436.12 557.52L1593.55 503.13" stroke="hsl(240, 100%, 100%)" stroke-width="1.5"></path><path d="M1436.12 557.52L1587.67 670.32" stroke="hsl(240, 100%, 100%)" stroke-width="1.5"></path><path d="M1436.12 557.52L1437.98 338.99" stroke="hsl(240, 100%, 100%)" stroke-width="1.5"></path><path d="M1595.62 -49.38L1595.62 -49.38" stroke="hsl(240, 100%, 100%)" stroke-width="1.5"></path><path d="M1595.62 -49.38L1551.61 45.78" stroke="hsl(240, 100%, 100%)" stroke-width="1.5"></path><path d="M1595.62 -49.38L1397.02 108.76" stroke="hsl(240, 100%, 100%)" stroke-width="1.5"></path><path d="M1595.62 -49.38L1551.61 217.64" stroke="hsl(240, 100%, 100%)" stroke-width="1.5"></path><path d="M1595.62 -49.38L1430.94 233.29" stroke="hsl(240, 100%, 100%)" stroke-width="1.5"></path><path d="M1551.61 45.78L1551.61 45.78" stroke="hsl(240, 100%, 100%)" stroke-width="1.5"></path><path d="M1551.61 217.64L1551.61 217.64" stroke="hsl(240, 100%, 100%)" stroke-width="1.5"></path><path d="M1551.61 217.64L1578.61 374.17" stroke="hsl(240, 100%, 100%)" stroke-width="1.5"></path><path d="M1551.61 217.64L1437.98 338.99" stroke="hsl(240, 100%, 100%)" stroke-width="1.5"></path><path d="M1578.61 374.17L1578.61 374.17" stroke="hsl(240, 100%, 100%)" stroke-width="1.5"></path><path d="M1578.61 374.17L1593.55 503.13" stroke="hsl(240, 100%, 100%)" stroke-width="1.5"></path><path d="M1593.55 503.13L1593.55 503.13" stroke="hsl(240, 100%, 100%)" stroke-width="1.5"></path><path d="M1593.55 503.13L1587.67 670.32" stroke="hsl(240, 100%, 100%)" stroke-width="1.5"></path><path d="M1593.55 503.13L1437.98 338.99" stroke="hsl(240, 100%, 100%)" stroke-width="1.5"></path><path d="M1587.67 670.32L1587.67 670.32" stroke="hsl(240, 100%, 100%)" stroke-width="1.5"></path><circle r="25" cx="-85.42" cy="668.44" fill="url(&quot;#SvgjsRadialGradient1220&quot;)"></circle><circle r="25" cx="45.34" cy="641.95" fill="url(&quot;#SvgjsRadialGradient1220&quot;)"></circle><circle r="25" cx="671.55" cy="385.83" fill="url(&quot;#SvgjsRadialGradient1220&quot;)"></circle><circle r="25" cx="681.88" cy="555.51" fill="url(&quot;#SvgjsRadialGradient1220&quot;)"></circle><circle r="25" cx="810.44" cy="675.96" fill="url(&quot;#SvgjsRadialGradient1220&quot;)"></circle><circle r="25" cx="1139.78" cy="227.74" fill="url(&quot;#SvgjsRadialGradient1220&quot;)"></circle><circle r="25" cx="1268.18" cy="555.98" fill="url(&quot;#SvgjsRadialGradient1220&quot;)"></circle><circle r="25" cx="1433.24" cy="706.09" fill="url(&quot;#SvgjsRadialGradient1220&quot;)"></circle><circle r="5" cx="-69.47" cy="540.1" fill="#fefeff"></circle><circle r="5" cx="55.32" cy="529.69" fill="#fefeff"></circle><circle r="5" cx="200.59" cy="561.05" fill="#fefeff"></circle><circle r="5" cx="243.27" cy="701.24" fill="#fefeff"></circle><circle r="5" cx="394.07" cy="706.07" fill="#fefeff"></circle><circle r="5" cx="513.29" cy="497.95" fill="#fefeff"></circle><circle r="5" cx="561.38" cy="644.48" fill="#fefeff"></circle><circle r="5" cx="688.06" cy="652.55" fill="#fefeff"></circle><circle r="5" cx="810.89" cy="552.03" fill="#fefeff"></circle><circle r="5" cx="985.22" cy="262.27" fill="#fefeff"></circle><circle r="5" cx="1010.26" cy="384.36" fill="#fefeff"></circle><circle r="5" cx="1006.41" cy="498.3" fill="#fefeff"></circle><circle r="5" cx="947.82" cy="648.23" fill="#fefeff"></circle><circle r="5" cx="1129.47" cy="366.02" fill="#fefeff"></circle><circle r="5" cx="1157.1" cy="646.33" fill="#fefeff"></circle><circle r="5" cx="1278.94" cy="-64.4" fill="#fefeff"></circle><circle r="5" cx="1275.55" cy="60.9" fill="#fefeff"></circle><circle r="5" cx="1309.54" cy="379.26" fill="#fefeff"></circle><circle r="5" cx="1296.54" cy="645.3" fill="#fefeff"></circle><circle r="5" cx="1441.91" cy="-104.28" fill="#fefeff"></circle><circle r="5" cx="1397.02" cy="108.76" fill="#fefeff"></circle><circle r="5" cx="1430.94" cy="233.29" fill="#fefeff"></circle><circle r="5" cx="1437.98" cy="338.99" fill="#fefeff"></circle><circle r="5" cx="1436.12" cy="557.52" fill="#fefeff"></circle><circle r="5" cx="1595.62" cy="-49.38" fill="#fefeff"></circle><circle r="5" cx="1551.61" cy="45.78" fill="#fefeff"></circle><circle r="5" cx="1551.61" cy="217.64" fill="#fefeff"></circle><circle r="5" cx="1578.61" cy="374.17" fill="#fefeff"></circle><circle r="5" cx="1593.55" cy="503.13" fill="#fefeff"></circle><circle r="5" cx="1587.67" cy="670.32" fill="#fefeff"></circle></g><defs><mask id="SvgjsMask1218"><rect width="1440" height="560" fill="#ffffff"></rect></mask><linearGradient x1="50%" y1="100%" x2="50%" y2="0%" gradientUnits="userSpaceOnUse" id="SvgjsLinearGradient1219"><stop stop-color="#0e2a47" offset="0"></stop><stop stop-color="rgba(0, 69, 158, 1)" offset="1"></stop></linearGradient><radialGradient id="SvgjsRadialGradient1220"><stop stop-color="#ffffff" offset="0.1"></stop><stop stop-color="rgba(253, 253, 255, 1)" offset="0.2"></stop><stop stop-color="rgba(253, 253, 255, 0)" offset="1"></stop></radialGradient></defs></svg>